<svg width="16" height="16" viewBox="0 0 16 16" fill="none" xmlns="http://www.w3.org/2000/svg">
<path d="M8 11.5C7.72386 11.5 7.5 11.2761 7.5 11V8.5H5C4.72386 8.5 4.5 8.27614 4.5 8C4.5 7.72386 4.72386 7.5 5 7.5H7.5V5C7.5 4.72386 7.72386 4.5 8 4.5C8.27614 4.5 8.5 4.72386 8.5 5V7.5H11C11.2761 7.5 11.5 7.72386 11.5 8C11.5 8.27614 11.2761 8.5 11 8.5H8.5V11C8.5 11.2761 8.27614 11.5 8 11.5Z" fill="#4D5DB2"/>
<path fill-rule="evenodd" clip-rule="evenodd" d="M4 1.5C2.61929 1.5 1.5 2.61929 1.5 4V12C1.5 13.3807 2.61929 14.5 4 14.5H12C13.3807 14.5 14.5 13.3807 14.5 12V4C14.5 2.61929 13.3807 1.5 12 1.5H4ZM2.5 4C2.5 3.17157 3.17157 2.5 4 2.5H12C12.8284 2.5 13.5 3.17157 13.5 4V12C13.5 12.8284 12.8284 13.5 12 13.5H4C3.17157 13.5 2.5 12.8284 2.5 12V4Z" fill="#4D5DB2"/>
</svg>
