<?xml version="1.0" standalone="no"?><!DOCTYPE svg PUBLIC "-//W3C//DTD SVG 1.1//EN" "http://www.w3.org/Graphics/SVG/1.1/DTD/svg11.dtd"><svg height="1024" node-id="1" sillyvg="true" template-height="1024" template-width="1024" version="1.1" viewBox="0 0 1024 1024" width="1024" xmlns="http://www.w3.org/2000/svg" xmlns:xlink="http://www.w3.org/1999/xlink"><defs node-id="100"></defs><path d="M 0.00 0.00 L 1024.00 0.00 L 1024.00 1024.00 L 0.00 1024.00 Z" fill="#ffffff" fill-rule="evenodd" id="矩形" node-id="5" stroke="none" target-height="1024" target-width="1024" target-x="0" target-y="0"></path><g node-id="102"><g node-id="103"><path d="M 442.83 410.18 L 440.73 410.64 L 439.07 411.42 L 437.75 412.51 L 436.74 413.94 L 436.01 415.76 L 435.60 418.10 L 434.22 433.26 L 432.64 448.39 L 299.84 448.39 L 297.18 448.17 L 295.19 447.64 L 293.71 446.86 L 292.46 445.75 L 291.52 444.44 L 290.85 442.90 L 290.28 440.36 L 290.05 437.47 L 290.06 431.53 L 290.66 257.61 L 290.83 256.37 L 291.28 255.31 L 291.99 254.39 L 292.92 253.67 L 293.97 253.22 L 295.21 253.05 L 437.74 252.86 L 438.05 252.73 L 438.18 252.42 L 438.28 239.22 L 438.08 225.94 L 438.25 223.66 L 438.74 221.98 L 439.51 220.75 L 440.59 219.76 L 441.91 219.02 L 443.51 218.52 L 446.09 218.14 L 449.05 218.04 L 580.88 218.16 L 583.72 218.44 L 585.86 219.20 L 587.46 220.38 L 588.63 222.00 L 589.38 224.16 L 589.66 227.04 L 589.61 339.99 L 589.35 382.27 L 589.17 383.57 L 588.75 384.62 L 588.09 385.47 L 586.78 386.49 L 585.11 387.22 L 583.29 387.68 L 581.43 387.94 L 578.08 388.07 L 511.20 388.00 L 444.75 388.27 L 444.08 388.41 L 443.54 388.78 L 443.17 389.32 L 443.03 389.99 L 442.83 410.18 Z M 559.29 255.61 L 559.13 254.40 L 558.68 253.32 L 557.94 252.34 L 556.97 251.60 L 555.89 251.15 L 554.68 250.99 L 487.07 250.87 L 485.86 251.03 L 484.78 251.47 L 483.80 252.21 L 483.06 253.19 L 482.61 254.26 L 482.45 255.48 L 482.42 271.21 L 482.58 272.43 L 483.03 273.50 L 483.77 274.48 L 484.74 275.22 L 485.81 275.67 L 487.03 275.84 L 554.64 275.95 L 555.85 275.79 L 556.93 275.35 L 557.90 274.61 L 558.65 273.63 L 559.10 272.56 L 559.26 271.35 L 559.29 255.61 Z M 470.43 261.34 L 470.25 260.13 L 469.82 259.10 L 469.12 258.19 L 468.22 257.49 L 467.18 257.06 L 465.97 256.89 L 464.77 257.06 L 463.73 257.49 L 462.83 258.19 L 462.13 259.10 L 461.69 260.13 L 461.52 261.34 L 461.69 262.55 L 462.13 263.59 L 462.83 264.49 L 463.73 265.19 L 464.77 265.62 L 465.97 265.79 L 467.18 265.62 L 468.22 265.19 L 469.12 264.49 L 469.82 263.59 L 470.25 262.55 L 470.43 261.34 L 470.43 261.34 Z M 321.85 318.64 L 321.74 324.10 L 322.12 329.29 L 322.99 334.24 L 324.32 338.97 L 326.14 343.58 L 328.36 347.86 L 330.96 351.83 L 333.98 355.53 L 337.36 358.89 L 341.06 361.86 L 345.09 364.45 L 349.49 366.68 L 354.06 368.42 L 358.91 369.69 L 364.06 370.50 L 369.55 370.81 L 374.91 370.52 L 379.89 369.72 L 384.55 368.43 L 388.91 366.66 L 393.09 364.41 L 396.91 361.78 L 400.41 358.78 L 403.60 355.38 L 406.42 351.67 L 408.87 347.69 L 410.94 343.44 L 412.65 338.87 L 413.91 334.19 L 414.74 329.34 L 415.13 324.31 L 415.07 319.06 L 413.97 313.13 L 412.44 307.80 L 410.49 303.01 L 408.14 298.70 L 405.29 294.60 L 402.18 290.99 L 398.79 287.83 L 395.11 285.10 L 391.14 282.75 L 387.04 280.84 L 382.79 279.35 L 378.36 278.28 L 373.85 277.63 L 369.35 277.41 L 364.83 277.60 L 360.28 278.22 L 355.82 279.26 L 351.50 280.72 L 347.32 282.61 L 343.25 284.93 L 339.45 287.63 L 335.93 290.76 L 332.66 294.34 L 329.64 298.40 L 327.11 302.69 L 324.95 307.46 L 323.19 312.76 L 321.85 318.64 Z M 461.51 305.64 L 461.34 304.48 L 460.92 303.48 L 460.25 302.61 L 459.38 301.94 L 458.38 301.52 L 457.22 301.36 L 456.05 301.52 L 455.06 301.94 L 454.19 302.61 L 453.51 303.48 L 453.10 304.48 L 452.93 305.64 L 453.10 306.81 L 453.51 307.80 L 454.19 308.67 L 455.06 309.35 L 456.05 309.77 L 457.22 309.93 L 458.38 309.77 L 459.38 309.35 L 460.25 308.67 L 460.92 307.80 L 461.34 306.81 L 461.51 305.64 L 461.51 305.64 Z M 508.95 305.86 L 508.86 305.44 L 508.63 305.11 L 508.29 304.88 L 507.88 304.80 L 473.58 305.04 L 473.16 305.13 L 472.83 305.36 L 472.60 305.70 L 472.52 306.11 L 472.54 309.07 L 472.63 309.49 L 472.86 309.82 L 473.19 310.05 L 473.61 310.13 L 507.91 309.89 L 508.33 309.80 L 508.66 309.57 L 508.89 309.24 L 508.97 308.82 L 508.95 305.86 Z M 573.05 305.31 L 572.88 304.92 L 572.48 304.75 L 515.75 305.05 L 515.36 305.22 L 515.19 305.61 L 515.21 309.59 L 515.38 309.98 L 515.78 310.14 L 572.51 309.85 L 572.91 309.68 L 573.07 309.29 L 573.05 305.31 Z M 573.11 327.28 L 572.84 326.64 L 572.20 326.37 L 477.69 326.37 L 477.05 326.64 L 476.78 327.28 L 476.78 327.31 L 477.05 327.95 L 477.69 328.21 L 572.20 328.21 L 572.84 327.95 L 573.11 327.31 L 573.11 327.28 Z M 573.01 339.22 L 572.83 338.80 L 572.42 338.63 L 478.85 338.63 L 478.43 338.80 L 478.26 339.22 L 478.26 342.40 L 478.43 342.82 L 478.85 343.00 L 572.42 343.00 L 572.83 342.82 L 573.01 342.40 L 573.01 339.22 Z M 371.80 388.83 L 371.68 388.23 L 371.35 387.73 L 370.85 387.40 L 370.26 387.28 L 324.07 387.28 L 323.48 387.40 L 322.98 387.73 L 322.64 388.23 L 322.52 388.83 L 322.52 390.99 L 322.65 391.60 L 322.98 392.09 L 323.46 392.41 L 324.07 392.54 L 370.26 392.54 L 370.86 392.41 L 371.35 392.09 L 371.68 391.60 L 371.80 390.99 L 371.80 388.83 Z M 423.54 408.55 L 423.30 407.94 L 422.69 407.69 L 321.21 407.51 L 320.61 407.76 L 320.35 408.37 L 320.35 408.40 L 320.60 409.00 L 321.21 409.25 L 422.69 409.43 L 423.29 409.18 L 423.54 408.58 L 423.54 408.55 Z M 423.13 421.17 L 422.98 420.42 L 422.57 419.81 L 421.97 419.40 L 421.21 419.25 L 363.49 419.25 L 362.74 419.40 L 362.13 419.81 L 361.72 420.42 L 361.57 421.17 L 361.57 422.22 L 361.71 422.96 L 362.13 423.58 L 362.75 424.00 L 363.49 424.14 L 421.21 424.14 L 421.95 424.00 L 422.57 423.58 L 422.99 422.96 L 423.13 422.22 L 423.13 421.17 Z" fill="#e5ecff" fill-rule="nonzero" group-id="1,2" id="形状" node-id="8" stroke="none" target-height="230.34636" target-width="299.61798" target-x="290.0462" target-y="218.04106"></path><path d="M 755.80 448.80 L 754.02 445.71 L 752.00 443.22 L 749.75 441.23 L 747.86 440.09 L 745.71 439.24 L 743.23 438.70 L 740.39 438.50 L 681.49 438.42 L 678.48 438.71 L 675.51 439.65 L 674.91 440.14 L 674.70 440.86 L 674.89 442.74 L 675.44 444.55 L 676.38 446.34 L 677.74 448.12 L 620.99 448.29 L 619.32 447.97 L 617.95 447.10 L 616.99 445.79 L 616.55 444.15 L 616.24 437.89 L 616.11 430.63 L 615.81 297.93 L 615.81 227.04 L 615.97 224.68 L 616.37 222.90 L 616.94 221.59 L 617.79 220.43 L 618.80 219.56 L 620.00 218.94 L 622.05 218.36 L 624.53 218.08 L 630.09 218.02 L 781.79 218.02 L 783.57 218.27 L 785.11 218.91 L 786.45 219.94 L 787.50 221.26 L 788.16 222.79 L 788.44 224.58 L 788.76 253.12 L 788.88 281.70 L 788.70 338.84 L 788.89 381.30 L 788.93 402.54 L 788.55 423.75 L 788.60 426.38 L 788.84 429.59 L 789.22 436.27 L 789.07 439.59 L 788.49 442.52 L 787.79 444.32 L 786.77 445.81 L 785.43 447.05 L 783.83 447.91 L 781.68 448.44 L 778.81 448.57 L 771.47 448.37 L 763.80 448.44 L 755.80 448.80 Z M 648.26 248.33 L 650.66 249.37 L 651.88 249.59 L 652.94 249.45 L 653.89 248.95 L 654.78 248.05 L 655.46 246.83 L 655.78 245.54 L 655.74 244.13 L 655.32 242.79 L 654.60 241.67 L 653.56 240.73 L 652.45 240.18 L 651.39 239.96 L 650.35 240.04 L 648.85 240.60 L 647.53 241.57 L 646.47 242.84 L 645.79 244.21 L 645.53 245.62 L 645.80 246.83 L 646.27 247.48 L 647.05 247.98 L 648.26 248.33 Z M 705.68 244.64 L 705.57 244.06 L 705.25 243.58 L 704.76 243.25 L 704.19 243.14 L 669.82 243.14 L 669.25 243.25 L 668.77 243.58 L 668.44 244.06 L 668.33 244.64 L 668.33 246.90 L 668.45 247.49 L 668.77 247.96 L 669.24 248.28 L 669.82 248.40 L 704.19 248.40 L 704.77 248.28 L 705.25 247.96 L 705.56 247.49 L 705.68 246.90 L 705.68 244.64 Z M 764.79 264.86 L 764.69 264.40 L 764.44 264.03 L 764.08 263.78 L 763.62 263.69 L 668.84 263.69 L 668.38 263.78 L 668.01 264.03 L 667.77 264.40 L 667.67 264.86 L 667.67 264.89 L 667.77 265.35 L 668.01 265.71 L 668.38 265.96 L 668.84 266.06 L 763.62 266.06 L 764.08 265.96 L 764.44 265.71 L 764.69 265.35 L 764.79 264.89 L 764.79 264.86 Z M 764.77 277.03 L 764.66 276.47 L 764.35 276.02 L 763.90 275.71 L 763.34 275.60 L 670.21 275.44 L 669.66 275.54 L 669.20 275.85 L 668.89 276.32 L 668.78 276.86 L 668.77 279.29 L 668.88 279.85 L 669.19 280.30 L 669.64 280.61 L 670.20 280.72 L 763.33 280.89 L 763.88 280.78 L 764.35 280.47 L 764.66 280.01 L 764.77 279.46 L 764.77 277.03 Z M 764.75 295.78 L 764.66 295.32 L 764.40 294.95 L 764.03 294.69 L 763.57 294.60 L 647.34 294.80 L 646.88 294.90 L 646.50 295.15 L 646.24 295.54 L 646.15 295.99 L 646.15 296.05 L 646.25 296.52 L 646.50 296.89 L 646.88 297.14 L 647.34 297.24 L 763.57 297.03 L 764.02 296.94 L 764.41 296.68 L 764.66 296.30 L 764.75 295.85 L 764.75 295.78 Z M 763.43 316.89 L 763.33 316.41 L 763.06 316.01 L 762.66 315.74 L 762.18 315.64 L 647.36 315.85 L 646.88 315.94 L 646.48 316.21 L 646.21 316.62 L 646.11 317.10 L 646.30 423.05 L 646.39 423.52 L 646.66 423.93 L 647.07 424.20 L 647.55 424.29 L 762.37 424.09 L 762.84 424.00 L 763.25 423.72 L 763.52 423.32 L 763.61 422.84 L 763.43 316.89 Z" fill="#e5ecff" fill-rule="nonzero" group-id="1,2" id="形状" node-id="9" stroke="none" target-height="230.77342" target-width="173.41553" target-x="615.80914" target-y="218.02464"></path><path d="M 650.66 249.37 L 653.06 247.74 L 654.23 246.38 L 654.59 245.20 L 654.32 244.04 L 653.31 242.77 L 651.16 241.30 L 650.43 241.12 L 649.72 241.37 L 648.49 242.41 L 647.76 243.57 L 647.46 244.89 L 647.59 246.44 L 648.26 248.33 L 647.05 247.98 L 646.27 247.48 L 645.80 246.83 L 645.53 245.62 L 645.79 244.21 L 646.47 242.84 L 647.53 241.57 L 648.85 240.60 L 650.35 240.04 L 651.39 239.96 L 652.45 240.18 L 653.56 240.73 L 654.60 241.67 L 655.32 242.79 L 655.74 244.13 L 655.78 245.54 L 655.46 246.83 L 654.78 248.05 L 653.89 248.95 L 652.94 249.45 L 651.88 249.59 L 650.66 249.37 Z" fill="#cecdf8" fill-rule="nonzero" group-id="1,2" id="路径" node-id="10" stroke="none" target-height="9.630707" target-width="10.243164" target-x="645.532" target-y="239.9621"></path><path d="M 650.66 249.37 L 648.26 248.33 L 647.59 246.44 L 647.46 244.89 L 647.76 243.57 L 648.49 242.41 L 649.72 241.37 L 650.43 241.12 L 651.16 241.30 L 653.31 242.77 L 654.32 244.04 L 654.59 245.20 L 654.23 246.38 L 653.06 247.74 L 650.66 249.37 Z" fill="#00b381" fill-rule="nonzero" group-id="1,2" id="路径" node-id="11" stroke="none" target-height="8.246033" target-width="7.1314087" target-x="647.4567" target-y="241.12003"></path><path d="M 669.24 243.14 L 704.77 243.14 L 705.42 243.41 L 705.68 244.05 L 705.68 247.49 L 705.42 248.13 L 704.77 248.40 L 669.24 248.40 L 668.60 248.13 L 668.33 247.49 L 668.33 244.05 L 668.60 243.41 L 669.24 243.14 Z" fill="#7f87ff" fill-rule="nonzero" group-id="1,2" id="矩形" node-id="12" stroke="none" target-height="5.256424" target-width="37.353455" target-x="668.32983" target-y="243.14049"></path><g node-id="104"><path d="M 485.26 250.86 L 556.49 250.99 L 557.59 251.21 L 558.47 251.82 L 559.07 252.70 L 559.29 253.80 L 559.26 273.15 L 559.03 274.25 L 558.43 275.14 L 557.55 275.73 L 556.44 275.96 L 485.22 275.83 L 484.12 275.61 L 483.24 275.01 L 482.64 274.12 L 482.42 273.02 L 482.45 253.67 L 482.68 252.57 L 483.28 251.68 L 484.16 251.09 L 485.26 250.86 Z" fill="#fe9a29" fill-rule="nonzero" group-id="1,2,3" id="矩形" node-id="13" stroke="none" target-height="25.09227" target-width="76.87598" target-x="482.41632" target-y="250.86443"></path></g><path d="M 470.43 261.34 L 470.25 262.55 L 469.82 263.59 L 469.12 264.49 L 468.22 265.19 L 467.18 265.62 L 465.97 265.79 L 464.77 265.62 L 463.73 265.19 L 462.83 264.49 L 462.13 263.59 L 461.69 262.55 L 461.52 261.34 L 461.69 260.13 L 462.13 259.10 L 462.83 258.19 L 463.73 257.49 L 464.77 257.06 L 465.97 256.89 L 467.18 257.06 L 468.22 257.49 L 469.12 258.19 L 469.82 259.10 L 470.25 260.13 L 470.43 261.34 Z" fill="#fe9a29" fill-rule="nonzero" group-id="1,2" id="椭圆形" node-id="14" stroke="none" target-height="8.903076" target-width="8.903046" target-x="461.52243" target-y="256.8893"></path><path d="M 668.38 263.69 L 764.08 263.69 L 764.58 263.90 L 764.79 264.40 L 764.79 265.35 L 764.58 265.85 L 764.08 266.06 L 668.38 266.06 L 667.88 265.85 L 667.67 265.35 L 667.67 264.40 L 667.88 263.90 L 668.38 263.69 Z" fill="#b9ccfd" fill-rule="nonzero" group-id="1,2" id="矩形" node-id="15" stroke="none" target-height="2.365387" target-width="97.11243" target-x="667.6728" target-y="263.68982"></path><path d="M 669.65 275.43 L 763.90 275.60 L 764.52 275.85 L 764.77 276.47 L 764.77 280.02 L 764.51 280.63 L 763.89 280.89 L 669.64 280.72 L 669.02 280.47 L 668.77 279.85 L 668.78 276.30 L 669.03 275.69 L 669.65 275.43 Z" fill="#7f87ff" fill-rule="nonzero" group-id="1,2,4" id="矩形" node-id="16" stroke="none" target-height="5.4537964" target-width="96.001465" target-x="668.7703" target-y="275.4345"></path><path d="M 415.07 319.06 L 406.86 318.45 L 398.92 317.62 L 396.72 317.55 L 394.48 317.82 L 392.16 318.44 L 388.77 319.82 L 385.33 321.65 L 378.78 325.90 L 372.84 329.84 L 372.07 330.04 L 371.34 329.81 L 361.16 322.89 L 360.43 322.56 L 359.61 322.53 L 358.28 322.71 L 358.42 320.17 L 357.97 318.14 L 357.00 316.50 L 355.46 315.15 L 353.21 314.09 L 352.57 313.61 L 352.52 312.82 L 354.00 306.87 L 354.03 305.84 L 353.60 305.32 L 352.57 305.17 L 350.09 305.60 L 348.20 306.46 L 346.76 307.73 L 345.71 309.43 L 345.04 311.70 L 344.70 312.41 L 344.01 312.77 L 341.52 313.58 L 339.30 314.89 L 337.29 316.73 L 335.48 319.19 L 321.85 318.64 L 323.19 312.76 L 324.95 307.46 L 327.11 302.69 L 329.64 298.40 L 332.66 294.34 L 335.93 290.76 L 339.45 287.63 L 343.25 284.93 L 347.32 282.61 L 351.50 280.72 L 355.82 279.26 L 360.28 278.22 L 364.83 277.60 L 369.35 277.41 L 373.85 277.63 L 378.36 278.28 L 382.79 279.35 L 387.04 280.84 L 391.14 282.75 L 395.11 285.10 L 398.79 287.83 L 402.18 290.99 L 405.29 294.60 L 408.14 298.70 L 410.49 303.01 L 412.44 307.80 L 413.97 313.13 L 415.07 319.06 Z" fill="#5b6ff8" fill-rule="nonzero" group-id="1,2" id="路径" node-id="17" stroke="none" target-height="52.63452" target-width="93.21939" target-x="321.8494" target-y="277.40582"></path><path d="M 928.74 412.09 L 925.38 407.86 L 921.79 404.30 L 917.95 401.35 L 913.85 398.97 L 909.46 397.13 L 904.72 395.83 L 899.60 395.08 L 894.03 394.92 L 887.97 395.38 L 880.57 394.26 L 875.57 393.32 L 871.26 392.02 L 867.56 390.41 L 864.40 388.50 L 861.45 386.14 L 858.92 383.53 L 856.78 380.66 L 855.00 377.50 L 853.16 373.01 L 851.81 368.12 L 850.96 362.80 L 850.58 357.40 L 850.54 351.77 L 850.88 345.89 L 850.72 345.19 L 850.20 344.69 L 845.45 342.29 L 844.88 341.80 L 844.62 341.07 L 844.06 337.68 L 843.23 334.45 L 842.13 331.38 L 840.67 328.50 L 838.85 325.99 L 836.65 323.81 L 834.80 322.49 L 832.66 321.43 L 830.19 320.65 L 827.35 320.16 L 820.49 319.41 L 813.59 318.47 L 811.70 315.67 L 810.46 313.19 L 809.75 310.97 L 809.49 308.96 L 809.61 306.88 L 810.09 304.94 L 810.92 303.12 L 812.14 301.38 L 814.13 299.33 L 816.60 297.40 L 819.62 295.60 L 824.51 293.37 L 830.03 291.49 L 835.74 290.01 L 841.43 288.92 L 847.03 288.15 L 851.91 287.75 L 856.44 287.65 L 859.55 287.85 L 864.67 288.75 L 869.40 290.10 L 873.77 291.87 L 877.84 294.07 L 881.61 296.70 L 885.13 299.79 L 888.39 303.36 L 891.40 307.45 L 894.17 312.11 L 896.69 317.40 L 897.86 320.51 L 899.09 324.39 L 901.65 333.01 L 903.13 337.60 L 904.83 342.25 L 906.80 346.81 L 909.09 351.11 L 913.00 357.06 L 917.18 362.63 L 921.42 368.07 L 925.36 373.37 L 927.77 376.99 L 929.80 380.68 L 931.46 384.44 L 932.66 388.33 L 933.28 392.49 L 933.31 396.97 L 932.91 400.24 L 932.06 403.82 L 930.69 407.75 L 928.74 412.09 Z" fill="#2e226a" fill-rule="nonzero" group-id="1,2" id="路径" node-id="18" stroke="none" target-height="124.43149" target-width="123.826416" target-x="809.48676" target-y="287.65375"></path><path d="M 246.30 328.49 L 243.63 330.48 L 241.10 331.73 L 238.69 332.35 L 236.21 332.40 L 233.48 331.83 L 230.40 330.51 L 224.64 327.63 L 222.10 326.78 L 220.13 326.65 L 218.98 326.97 L 217.98 327.74 L 217.09 329.06 L 216.52 330.62 L 216.05 332.98 L 215.77 336.39 L 215.63 337.18 L 215.28 337.87 L 214.76 338.44 L 214.08 338.85 L 213.30 339.05 L 212.53 339.02 L 211.79 338.78 L 211.14 338.33 L 209.38 337.01 L 207.75 336.21 L 206.21 335.85 L 204.62 335.85 L 203.23 336.18 L 201.99 336.85 L 200.96 337.79 L 200.20 338.98 L 199.69 340.46 L 199.55 342.01 L 199.79 343.78 L 200.49 345.82 L 201.04 346.62 L 201.84 347.18 L 204.04 348.24 L 204.54 348.68 L 204.73 349.32 L 204.47 353.04 L 203.61 356.56 L 202.15 359.92 L 201.64 360.56 L 200.92 360.97 L 197.90 361.74 L 194.97 361.96 L 192.08 361.66 L 188.86 351.01 L 187.32 345.59 L 186.12 340.33 L 185.57 336.80 L 185.34 333.47 L 185.43 330.29 L 185.93 327.18 L 186.91 324.29 L 188.39 321.56 L 188.72 320.82 L 188.78 320.00 L 188.20 317.09 L 187.13 314.16 L 184.40 308.50 L 183.14 305.70 L 182.26 303.06 L 181.96 301.29 L 182.00 299.58 L 182.37 297.91 L 183.13 296.32 L 184.12 294.94 L 185.36 293.75 L 187.51 292.33 L 189.94 291.32 L 192.49 290.73 L 194.99 290.56 L 197.98 290.90 L 200.88 291.73 L 206.54 294.21 L 209.37 295.52 L 212.21 296.65 L 215.13 297.44 L 218.15 297.73 L 222.09 297.35 L 225.66 296.45 L 232.36 293.90 L 235.64 292.69 L 238.96 291.81 L 241.20 291.50 L 243.58 291.52 L 246.12 291.89 L 248.70 292.72 L 251.08 293.90 L 253.29 295.45 L 255.26 297.30 L 256.96 299.36 L 258.39 301.64 L 259.51 304.08 L 260.27 306.56 L 260.67 309.11 L 260.66 311.68 L 260.22 314.14 L 259.34 316.55 L 258.01 318.74 L 256.14 320.76 L 253.63 322.63 L 250.66 324.61 L 248.24 326.57 L 246.30 328.49 Z" fill="#2e226a" fill-rule="nonzero" group-id="1,2" id="路径" node-id="19" stroke="none" target-height="71.39575" target-width="78.708374" target-x="181.95688" target-y="290.5633"></path><path d="M 646.87 294.80 L 764.03 294.60 L 764.54 294.81 L 764.75 295.32 L 764.75 296.31 L 764.54 296.82 L 764.03 297.03 L 646.88 297.24 L 646.37 297.03 L 646.16 296.52 L 646.15 295.53 L 646.36 295.02 L 646.87 294.80 Z" fill="#b9ccfd" fill-rule="nonzero" group-id="1,2,5" id="矩形" node-id="20" stroke="none" target-height="2.6355896" target-width="118.59961" target-x="646.1535" target-y="294.60046"></path><path d="M 461.51 305.64 L 461.34 306.81 L 460.92 307.80 L 460.25 308.67 L 459.38 309.35 L 458.38 309.77 L 457.22 309.93 L 456.05 309.77 L 455.06 309.35 L 454.19 308.67 L 453.51 307.80 L 453.10 306.81 L 452.93 305.64 L 453.10 304.48 L 453.51 303.48 L 454.19 302.61 L 455.06 301.94 L 456.05 301.52 L 457.22 301.36 L 458.38 301.52 L 459.38 301.94 L 460.25 302.61 L 460.92 303.48 L 461.34 304.48 L 461.51 305.64 Z" fill="#00b381" fill-rule="nonzero" group-id="1,2" id="椭圆形" node-id="21" stroke="none" target-height="8.574554" target-width="8.574524" target-x="452.93146" target-y="301.35538"></path><path d="M 473.16 305.04 L 508.29 304.80 L 508.75 304.98 L 508.95 305.44 L 508.97 309.23 L 508.79 309.70 L 508.33 309.89 L 473.20 310.13 L 472.74 309.95 L 472.54 309.49 L 472.52 305.70 L 472.70 305.24 L 473.16 305.04 Z" fill="#7f87ff" fill-rule="nonzero" group-id="1,2,6" id="矩形" node-id="22" stroke="none" target-height="5.337311" target-width="36.459137" target-x="472.51526" target-y="304.7973"></path><path d="M 515.53 305.05 L 572.70 304.75 L 572.94 304.85 L 573.05 305.09 L 573.07 309.50 L 572.97 309.75 L 572.73 309.85 L 515.56 310.15 L 515.32 310.05 L 515.22 309.81 L 515.19 305.39 L 515.29 305.15 L 515.53 305.05 Z" fill="#7f87ff" fill-rule="nonzero" group-id="1,2,7" id="矩形" node-id="23" stroke="none" target-height="5.391449" target-width="57.875854" target-x="515.1925" target-y="304.75385"></path><path d="M 358.28 322.71 L 355.92 331.94 L 355.52 332.67 L 354.82 333.12 L 350.48 334.59 L 349.82 335.11 L 349.64 335.92 L 349.71 338.15 L 349.36 340.34 L 348.95 341.32 L 348.65 341.32 L 348.20 340.37 L 346.98 336.43 L 346.53 335.67 L 345.75 335.28 L 342.51 334.27 L 339.99 333.00 L 338.07 331.49 L 336.64 329.73 L 335.65 327.69 L 335.10 325.32 L 335.02 322.52 L 335.48 319.19 L 337.29 316.73 L 339.30 314.89 L 341.52 313.58 L 344.01 312.77 L 344.70 312.41 L 345.04 311.70 L 345.71 309.43 L 346.76 307.73 L 348.20 306.46 L 350.09 305.60 L 352.57 305.17 L 353.60 305.32 L 354.03 305.84 L 354.00 306.87 L 352.52 312.82 L 352.57 313.61 L 353.21 314.09 L 355.46 315.15 L 357.00 316.50 L 357.97 318.14 L 358.42 320.17 L 358.28 322.71 Z" fill="#fdfdfd" fill-rule="nonzero" group-id="1,2" id="路径" node-id="24" stroke="none" target-height="36.156403" target-width="23.404022" target-x="335.01505" target-y="305.1663"></path><path d="M 763.61 422.84 L 763.52 423.32 L 763.25 423.72 L 762.84 424.00 L 762.37 424.09 L 647.55 424.29 L 647.07 424.20 L 646.66 423.93 L 646.39 423.52 L 646.30 423.05 L 646.11 317.10 L 646.21 316.62 L 646.48 316.21 L 646.88 315.94 L 647.36 315.85 L 762.18 315.64 L 762.66 315.74 L 763.06 316.01 L 763.33 316.41 L 763.43 316.89 L 763.61 422.84 Z M 688.71 363.27 L 704.00 374.44 L 719.02 386.20 L 720.13 386.79 L 721.52 386.94 L 723.33 386.56 L 724.04 386.56 L 724.61 387.00 L 726.50 389.49 L 728.20 391.19 L 729.72 392.26 L 731.11 392.84 L 732.64 393.07 L 734.07 392.90 L 735.47 392.33 L 736.87 391.32 L 738.45 389.59 L 739.99 387.26 L 741.46 384.18 L 741.62 383.39 L 741.46 382.58 L 740.11 379.95 L 738.57 378.15 L 736.83 377.02 L 734.85 376.45 L 732.52 376.46 L 729.72 377.16 L 729.04 377.22 L 728.47 376.85 L 724.65 373.09 L 720.33 369.45 L 711.61 362.95 L 704.55 357.76 L 689.68 345.67 L 686.47 342.78 L 684.62 341.21 L 682.69 339.83 L 680.67 338.79 L 678.71 338.36 L 677.44 338.45 L 676.18 338.95 L 674.87 339.94 L 673.28 341.83 L 672.39 343.46 L 672.04 344.92 L 672.08 346.42 L 672.49 347.87 L 673.29 349.32 L 674.91 351.32 L 677.07 353.36 L 677.50 353.99 L 677.56 354.76 L 673.41 379.13 L 673.49 379.60 L 673.84 379.93 L 674.31 379.98 L 674.72 379.74 L 688.71 363.27 Z" fill="#fdfdfd" fill-rule="nonzero" group-id="1,2" id="形状" node-id="25" stroke="none" target-height="108.64667" target-width="117.501465" target-x="646.11127" target-y="315.6448"></path><path d="M 415.07 319.06 L 415.13 324.31 L 414.74 329.34 L 413.91 334.19 L 412.65 338.87 L 410.94 343.44 L 408.87 347.69 L 406.42 351.67 L 403.60 355.38 L 400.41 358.78 L 396.91 361.78 L 393.09 364.41 L 388.91 366.66 L 384.55 368.43 L 379.89 369.72 L 374.91 370.52 L 369.55 370.81 L 364.06 370.50 L 358.91 369.69 L 354.06 368.42 L 349.49 366.68 L 345.09 364.45 L 341.06 361.86 L 337.36 358.89 L 333.98 355.53 L 330.96 351.83 L 328.36 347.86 L 326.14 343.58 L 324.32 338.97 L 322.99 334.24 L 322.12 329.29 L 321.74 324.10 L 321.85 318.64 L 335.48 319.19 L 335.02 322.52 L 335.10 325.32 L 335.65 327.69 L 336.64 329.73 L 338.07 331.49 L 339.99 333.00 L 342.51 334.27 L 345.75 335.28 L 346.53 335.67 L 346.98 336.43 L 348.20 340.37 L 348.65 341.32 L 348.95 341.32 L 349.36 340.34 L 349.71 338.15 L 349.64 335.92 L 349.82 335.11 L 350.48 334.59 L 354.82 333.12 L 355.52 332.67 L 355.92 331.94 L 358.28 322.71 L 359.61 322.53 L 360.43 322.56 L 361.16 322.89 L 371.34 329.81 L 372.07 330.04 L 372.84 329.84 L 378.78 325.90 L 385.33 321.65 L 388.77 319.82 L 392.16 318.44 L 394.48 317.82 L 396.72 317.55 L 398.92 317.62 L 406.86 318.45 L 415.07 319.06 Z" fill="#00be8b" fill-rule="nonzero" group-id="1,2" id="路径" node-id="26" stroke="none" target-height="53.253998" target-width="93.39206" target-x="321.7363" target-y="317.5522"></path><path d="M 813.59 318.47 L 820.49 319.41 L 827.35 320.16 L 830.19 320.65 L 832.66 321.43 L 834.80 322.49 L 836.65 323.81 L 838.85 325.99 L 840.67 328.50 L 842.13 331.38 L 843.23 334.45 L 844.06 337.68 L 844.62 341.07 L 844.88 341.80 L 845.45 342.29 L 850.20 344.69 L 850.72 345.19 L 850.88 345.89 L 850.54 351.77 L 850.58 357.40 L 850.96 362.80 L 851.81 368.12 L 853.16 373.01 L 855.00 377.50 L 856.78 380.66 L 858.92 383.53 L 861.45 386.14 L 864.40 388.50 L 867.56 390.41 L 871.26 392.02 L 875.57 393.32 L 880.57 394.26 L 887.97 395.38 L 886.87 399.84 L 886.19 402.06 L 885.17 403.94 L 882.53 406.91 L 879.62 409.41 L 876.41 411.47 L 872.95 413.10 L 869.40 414.29 L 865.71 415.04 L 861.97 415.35 L 858.32 415.23 L 854.73 414.67 L 851.26 413.66 L 848.06 412.23 L 845.10 410.36 L 842.48 408.07 L 840.26 405.35 L 838.44 402.13 L 837.46 399.57 L 836.77 396.73 L 836.41 393.55 L 836.40 389.99 L 835.01 378.33 L 834.73 377.66 L 834.09 377.33 L 829.89 376.25 L 826.20 374.89 L 822.97 373.28 L 820.02 371.25 L 817.53 368.84 L 815.48 366.02 L 814.28 363.72 L 813.33 361.09 L 812.63 358.09 L 812.21 354.68 L 811.89 347.04 L 811.98 338.52 L 812.53 329.03 L 813.59 318.47 Z M 819.94 359.11 L 818.75 351.52 L 818.53 351.12 L 818.11 350.93 L 817.66 351.04 L 817.37 351.41 L 816.89 353.50 L 816.87 355.63 L 817.32 357.69 L 818.23 359.56 L 819.60 361.12 L 821.46 362.28 L 822.85 362.69 L 824.92 363.00 L 825.95 362.98 L 826.70 362.79 L 827.17 362.37 L 827.22 361.64 L 826.99 361.23 L 826.55 361.05 L 821.47 360.56 L 820.92 360.40 L 820.47 360.09 L 820.13 359.65 L 819.94 359.11 L 819.94 359.11 Z" fill="#ff9fa5" fill-rule="nonzero" group-id="1,2" id="形状" node-id="27" stroke="none" target-height="96.882935" target-width="76.07825" target-x="811.888" target-y="318.47162"></path><path d="M 477.33 326.37 L 572.56 326.37 L 572.95 326.53 L 573.11 326.92 L 573.11 327.66 L 572.95 328.05 L 572.56 328.21 L 477.33 328.21 L 476.94 328.05 L 476.78 327.66 L 476.78 326.92 L 476.94 326.53 L 477.33 326.37 Z" fill="#aab9ff" fill-rule="nonzero" group-id="1,2" id="矩形" node-id="28" stroke="none" target-height="1.8397522" target-width="96.323975" target-x="476.78247" target-y="326.37268"></path><path d="M 246.30 328.49 L 246.99 333.79 L 247.52 339.52 L 247.71 345.31 L 247.43 350.99 L 246.89 354.72 L 246.00 358.18 L 244.77 361.42 L 243.10 364.42 L 240.95 367.05 L 238.27 369.35 L 236.04 370.70 L 233.41 371.83 L 230.30 372.70 L 226.66 373.29 L 225.91 373.56 L 225.43 374.17 L 224.72 376.04 L 224.29 378.03 L 224.15 380.17 L 224.01 385.21 L 223.43 389.36 L 222.47 392.75 L 221.19 395.50 L 219.62 397.72 L 217.75 399.49 L 215.57 400.84 L 213.01 401.80 L 210.00 402.35 L 206.44 402.42 L 202.23 401.95 L 197.66 400.92 L 193.53 399.49 L 189.80 397.69 L 186.43 395.52 L 183.39 392.97 L 180.66 390.02 L 178.22 386.64 L 176.06 382.78 L 174.21 378.39 L 177.76 377.14 L 180.93 375.53 L 183.75 373.55 L 186.26 371.22 L 188.49 368.48 L 190.43 365.31 L 192.08 361.66 L 194.97 361.96 L 197.90 361.74 L 200.92 360.97 L 201.64 360.56 L 202.15 359.92 L 203.61 356.56 L 204.47 353.04 L 204.73 349.32 L 204.54 348.68 L 204.04 348.24 L 201.84 347.18 L 201.04 346.62 L 200.49 345.82 L 199.79 343.78 L 199.55 342.01 L 199.69 340.46 L 200.20 338.98 L 200.96 337.79 L 201.99 336.85 L 203.23 336.18 L 204.62 335.85 L 206.21 335.85 L 207.75 336.21 L 209.38 337.01 L 211.14 338.33 L 211.79 338.78 L 212.53 339.02 L 213.30 339.05 L 214.08 338.85 L 214.76 338.44 L 215.28 337.87 L 215.63 337.18 L 215.77 336.39 L 216.05 332.98 L 216.52 330.62 L 217.09 329.06 L 217.98 327.74 L 218.98 326.97 L 220.13 326.65 L 222.10 326.78 L 224.64 327.63 L 230.40 330.51 L 233.48 331.83 L 236.21 332.40 L 238.69 332.35 L 241.10 331.73 L 243.63 330.48 L 246.30 328.49 Z M 212.68 344.01 L 212.48 344.88 L 212.66 345.62 L 213.24 346.31 L 213.97 346.47 L 214.60 346.07 L 214.81 345.30 L 214.49 344.57 L 213.60 343.80 L 213.08 343.60 L 212.68 344.01 Z M 241.92 349.98 L 241.22 350.53 L 240.87 351.53 L 240.71 354.25 L 240.61 355.77 L 240.28 357.23 L 239.61 358.51 L 238.40 359.56 L 237.39 359.99 L 235.93 360.27 L 233.89 360.31 L 233.37 360.46 L 233.36 361.00 L 233.59 361.34 L 234.00 361.60 L 234.92 361.79 L 237.32 361.35 L 239.23 360.58 L 240.75 359.49 L 241.95 358.08 L 242.85 356.29 L 243.42 354.03 L 243.63 351.19 L 243.49 350.60 L 243.09 350.14 L 242.52 349.92 L 241.92 349.98 L 241.92 349.98 Z" fill="#ff9fa5" fill-rule="nonzero" group-id="1,2" id="形状" node-id="29" stroke="none" target-height="75.77869" target-width="73.50389" target-x="174.20958" target-y="326.64575"></path><path d="M 689.68 345.67 L 686.66 347.75 L 684.16 350.15 L 682.14 352.89 L 680.57 356.01 L 680.52 356.81 L 680.98 357.48 L 688.71 363.27 L 674.72 379.74 L 674.31 379.98 L 673.84 379.93 L 673.49 379.60 L 673.41 379.13 L 677.56 354.76 L 677.50 353.99 L 677.07 353.36 L 674.91 351.32 L 673.29 349.32 L 672.49 347.87 L 672.08 346.42 L 672.04 344.92 L 672.39 343.46 L 673.28 341.83 L 674.87 339.94 L 676.18 338.95 L 677.44 338.45 L 678.71 338.36 L 680.67 338.79 L 682.69 339.83 L 684.62 341.21 L 686.47 342.78 L 689.68 345.67 Z" fill="#00be8b" fill-rule="nonzero" group-id="1,2" id="路径" node-id="30" stroke="none" target-height="41.620605" target-width="17.64801" target-x="672.0361" target-y="338.3603"></path><path d="M 478.62 338.63 L 572.65 338.63 L 572.90 338.73 L 573.01 338.99 L 573.01 342.64 L 572.90 342.89 L 572.65 343.00 L 478.62 343.00 L 478.37 342.89 L 478.26 342.64 L 478.26 338.99 L 478.37 338.73 L 478.62 338.63 Z" fill="#7579c8" fill-rule="nonzero" group-id="1,2" id="矩形" node-id="31" stroke="none" target-height="4.3694153" target-width="94.74704" target-x="478.26083" target-y="338.6267"></path><path d="M 213.60 343.80 L 214.49 344.57 L 214.81 345.30 L 214.60 346.07 L 213.97 346.47 L 213.24 346.31 L 212.66 345.62 L 212.48 344.88 L 212.68 344.01 L 213.08 343.60 L 213.60 343.80 Z" fill="#ce315c" fill-rule="nonzero" group-id="1,2" id="路径" node-id="32" stroke="none" target-height="2.874298" target-width="2.3322754" target-x="212.47919" target-y="343.59943"></path><path d="M 689.68 345.67 L 704.55 357.76 L 711.61 362.95 L 720.33 369.45 L 724.65 373.09 L 728.47 376.85 L 729.04 377.22 L 729.72 377.16 L 732.52 376.46 L 734.85 376.45 L 736.83 377.02 L 738.57 378.15 L 740.11 379.95 L 741.46 382.58 L 741.62 383.39 L 741.46 384.18 L 739.99 387.26 L 738.45 389.59 L 736.87 391.32 L 735.47 392.33 L 734.07 392.90 L 732.64 393.07 L 731.11 392.84 L 729.72 392.26 L 728.20 391.19 L 726.50 389.49 L 724.61 387.00 L 724.04 386.56 L 723.33 386.56 L 721.52 386.94 L 720.13 386.79 L 719.02 386.20 L 704.00 374.44 L 688.71 363.27 L 680.98 357.48 L 680.52 356.81 L 680.57 356.01 L 682.14 352.89 L 684.16 350.15 L 686.66 347.75 L 689.68 345.67 Z" fill="#009d60" fill-rule="nonzero" group-id="1,2" id="路径" node-id="33" stroke="none" target-height="47.393707" target-width="61.103577" target-x="680.5205" target-y="345.6736"></path><path d="M 241.92 349.98 L 242.52 349.92 L 243.09 350.14 L 243.49 350.60 L 243.63 351.19 L 243.42 354.03 L 242.85 356.29 L 241.95 358.08 L 240.75 359.49 L 239.23 360.58 L 237.32 361.35 L 234.92 361.79 L 234.00 361.60 L 233.59 361.34 L 233.36 361.00 L 233.37 360.46 L 233.89 360.31 L 235.93 360.27 L 237.39 359.99 L 238.40 359.56 L 239.61 358.51 L 240.28 357.23 L 240.61 355.77 L 240.71 354.25 L 240.87 351.53 L 241.22 350.53 L 241.92 349.98 Z" fill="#ff6780" fill-rule="nonzero" group-id="1,2" id="路径" node-id="34" stroke="none" target-height="11.871399" target-width="10.266464" target-x="233.36076" target-y="349.91644"></path><path d="M 821.47 360.56 L 826.55 361.05 L 826.99 361.23 L 827.22 361.64 L 827.17 362.37 L 826.70 362.79 L 825.95 362.98 L 824.92 363.00 L 822.85 362.69 L 821.46 362.28 L 819.60 361.12 L 818.23 359.56 L 817.32 357.69 L 816.87 355.63 L 816.89 353.50 L 817.37 351.41 L 817.66 351.04 L 818.11 350.93 L 818.53 351.11 L 818.75 351.52 L 819.94 359.11 L 820.13 359.65 L 820.47 360.09 L 820.92 360.40 L 821.47 360.56 L 821.47 360.56 Z" fill="#ff6780" fill-rule="nonzero" group-id="1,2" id="路径" node-id="35" stroke="none" target-height="12.072449" target-width="10.346741" target-x="816.87494" target-y="350.9289"></path><path d="M 174.21 378.39 L 176.06 382.78 L 178.22 386.64 L 180.66 390.02 L 183.39 392.97 L 186.43 395.52 L 189.80 397.69 L 193.53 399.49 L 197.66 400.92 L 202.23 401.95 L 206.44 402.42 L 210.00 402.35 L 213.01 401.80 L 215.57 400.84 L 217.75 399.49 L 219.62 397.72 L 221.19 395.50 L 222.47 392.75 L 223.43 389.36 L 224.01 385.21 L 224.15 380.17 L 229.44 381.70 L 234.28 383.53 L 238.72 385.63 L 242.77 388.00 L 247.89 391.69 L 252.59 395.85 L 256.90 400.49 L 260.83 405.49 L 264.58 410.95 L 268.15 416.90 L 265.71 417.75 L 263.19 419.22 L 260.53 421.42 L 259.49 422.83 L 258.27 424.28 L 257.47 424.69 L 256.41 424.72 L 255.07 424.23 L 254.12 423.53 L 253.22 422.77 L 252.16 422.18 L 250.90 421.96 L 248.74 422.34 L 248.11 422.73 L 247.83 423.42 L 247.63 423.90 L 247.21 424.03 L 246.34 423.73 L 245.96 423.66 L 245.61 423.80 L 245.38 424.11 L 245.35 424.49 L 246.91 431.98 L 247.12 433.74 L 246.94 434.94 L 246.54 435.52 L 245.76 435.93 L 244.38 436.15 L 228.01 436.27 L 219.85 436.34 L 211.78 436.69 L 194.41 437.64 L 193.74 437.81 L 193.18 438.24 L 192.84 438.84 L 192.75 439.53 L 197.60 499.79 L 197.80 506.64 L 198.11 510.13 L 198.75 513.50 L 199.41 515.66 L 200.34 517.68 L 201.53 519.56 L 228.70 555.88 L 246.63 582.59 L 246.78 583.10 L 246.59 583.60 L 246.15 583.88 L 245.61 583.84 L 199.64 564.23 L 192.40 560.82 L 183.82 556.88 L 179.36 555.07 L 175.15 553.63 L 171.02 552.62 L 167.62 552.28 L 159.63 553.33 L 151.98 554.93 L 144.65 557.08 L 137.60 559.77 L 130.81 563.01 L 124.27 566.80 L 117.96 571.17 L 111.85 576.14 L 105.95 581.73 L 100.24 587.99 L 98.58 582.22 L 97.28 576.34 L 96.34 570.33 L 95.76 564.18 L 95.45 555.95 L 95.60 547.61 L 96.20 539.14 L 97.73 526.48 L 99.85 513.90 L 102.36 501.46 L 105.01 489.50 L 108.09 473.70 L 111.73 457.93 L 115.95 442.20 L 120.74 426.49 L 125.69 414.89 L 128.31 409.17 L 131.12 404.29 L 134.10 400.16 L 137.49 396.36 L 141.12 393.04 L 145.00 390.20 L 149.13 387.70 L 153.58 385.46 L 158.37 383.46 L 165.85 380.86 L 174.21 378.39 Z" fill="#ff7882" fill-rule="nonzero" group-id="1,2" id="路径" node-id="36" stroke="none" target-height="209.59991" target-width="172.69788" target-x="95.453865" target-y="378.39484"></path><path d="M 323.46 387.28 L 370.86 387.28 L 371.53 387.56 L 371.80 388.22 L 371.80 391.60 L 371.53 392.26 L 370.86 392.54 L 323.46 392.54 L 322.80 392.26 L 322.52 391.60 L 322.52 388.22 L 322.80 387.56 L 323.46 387.28 Z" fill="#7f87ff" fill-rule="nonzero" group-id="1,2" id="矩形" node-id="37" stroke="none" target-height="5.2564087" target-width="49.27896" target-x="322.52286" target-y="387.2815"></path><path d="M 836.40 389.99 L 836.41 393.55 L 836.77 396.73 L 837.46 399.57 L 838.44 402.13 L 840.26 405.35 L 842.48 408.07 L 845.10 410.36 L 848.06 412.23 L 851.26 413.66 L 854.73 414.67 L 858.32 415.23 L 861.97 415.35 L 865.71 415.04 L 869.40 414.29 L 872.95 413.10 L 876.41 411.47 L 879.62 409.41 L 882.53 406.91 L 885.17 403.94 L 886.19 402.06 L 886.87 399.84 L 887.97 395.38 L 894.03 394.92 L 899.60 395.08 L 904.72 395.83 L 909.46 397.13 L 913.85 398.97 L 917.95 401.35 L 921.79 404.30 L 925.38 407.86 L 928.74 412.09 L 934.72 424.31 L 932.52 424.58 L 930.98 425.32 L 929.93 426.48 L 929.29 428.17 L 929.13 430.60 L 929.05 430.93 L 928.80 431.17 L 928.47 431.24 L 928.16 431.11 L 927.32 430.42 L 926.80 430.15 L 926.47 430.26 L 926.21 430.78 L 925.18 433.46 L 923.69 435.82 L 921.69 437.91 L 921.14 438.66 L 921.05 439.58 L 921.10 441.70 L 920.66 443.59 L 919.75 445.30 L 919.39 446.05 L 919.26 446.89 L 919.04 451.27 L 918.45 454.55 L 915.08 466.47 L 910.29 481.40 L 909.62 483.93 L 909.13 486.81 L 908.29 492.61 L 907.67 495.34 L 906.82 497.55 L 904.18 503.39 L 902.03 509.33 L 900.22 515.34 L 898.63 521.21 L 897.04 527.00 L 895.39 532.38 L 895.24 533.67 L 896.39 545.22 L 896.63 545.81 L 897.20 546.11 L 906.66 547.69 L 913.24 548.46 L 917.58 548.64 L 921.97 548.32 L 925.72 547.62 L 928.90 546.58 L 931.61 545.23 L 934.17 543.48 L 936.38 541.48 L 938.27 539.23 L 939.86 536.71 L 941.56 533.08 L 942.90 529.15 L 943.87 524.87 L 944.78 518.30 L 945.23 511.54 L 945.47 498.52 L 946.89 498.49 L 947.61 498.70 L 947.94 499.37 L 948.31 503.49 L 948.45 507.60 L 948.61 511.67 L 949.02 515.55 L 950.22 523.03 L 951.90 535.10 L 952.71 542.18 L 953.42 549.97 L 953.94 557.89 L 954.18 565.83 L 954.08 573.67 L 953.55 580.86 L 952.90 585.56 L 952.01 589.67 L 950.91 593.25 L 949.40 596.65 L 947.64 599.25 L 945.65 601.20 L 943.91 602.27 L 941.95 602.92 L 939.71 603.14 L 937.13 602.89 L 920.33 591.55 L 911.80 586.17 L 903.06 581.16 L 897.10 578.09 L 890.93 575.28 L 884.57 572.75 L 877.65 570.51 L 870.62 568.78 L 863.44 567.56 L 856.11 566.86 L 848.60 566.67 L 840.89 567.01 L 832.95 567.91 L 836.57 560.88 L 839.56 553.89 L 841.93 546.92 L 843.72 539.94 L 844.93 532.93 L 860.68 536.96 L 861.07 536.97 L 861.43 536.80 L 861.68 536.50 L 861.77 536.12 L 861.77 515.77 L 861.52 515.05 L 860.88 514.65 L 849.04 511.87 L 843.01 510.49 L 837.09 509.31 L 831.22 508.44 L 825.74 508.03 L 819.14 508.08 L 812.38 508.58 L 805.46 509.55 L 798.34 510.99 L 794.34 504.04 L 796.67 502.10 L 798.44 500.20 L 799.73 498.33 L 800.69 496.28 L 801.32 494.09 L 801.61 491.73 L 801.52 488.01 L 800.84 483.52 L 796.95 465.10 L 795.19 456.49 L 793.81 448.55 L 792.89 440.76 L 792.60 433.51 L 792.83 428.75 L 793.46 424.13 L 794.50 419.64 L 796.17 415.01 L 798.20 411.08 L 800.57 407.78 L 803.37 404.82 L 806.52 402.23 L 810.03 399.97 L 813.75 398.03 L 817.80 396.23 L 822.20 394.58 L 836.40 389.99 Z" fill="#7348ff" fill-rule="nonzero" group-id="1,2" id="路径" node-id="38" stroke="none" target-height="213.15051" target-width="161.5791" target-x="792.6037" target-y="389.99182"></path><path d="M 987.39 436.68 L 984.72 436.19 L 981.71 435.43 L 978.73 434.39 L 975.90 433.06 L 973.34 431.37 L 971.33 429.38 L 970.31 427.85 L 969.66 426.14 L 969.38 424.22 L 969.62 422.24 L 970.42 420.19 L 971.88 418.00 L 973.67 416.03 L 975.87 414.10 L 978.53 412.20 L 982.79 409.77 L 987.41 407.79 L 990.62 406.78 L 993.69 406.11 L 996.63 405.76 L 999.57 405.79 L 1002.09 406.24 L 1004.27 407.09 L 1005.70 408.04 L 1006.86 409.27 L 1007.77 410.82 L 1008.43 412.76 L 1008.70 414.71 L 1008.64 417.12 L 1008.17 420.09 L 1007.19 423.75 L 1004.70 429.94 L 1002.72 434.24 L 1000.16 439.38 L 997.34 444.59 L 994.21 449.82 L 990.85 454.81 L 987.51 459.03 L 985.07 461.59 L 982.81 463.47 L 980.69 464.78 L 978.97 465.45 L 977.39 465.66 L 975.88 465.45 L 974.40 464.83 L 973.81 464.29 L 973.47 463.55 L 973.36 462.42 L 973.55 461.03 L 974.11 459.29 L 975.31 456.71 L 977.02 453.73 L 981.05 447.72 L 985.07 442.13 L 987.95 437.83 L 988.14 437.24 L 987.97 436.89 L 987.39 436.68 Z M 976.22 428.41 L 979.29 430.26 L 982.51 431.73 L 985.89 432.83 L 989.45 433.57 L 990.07 433.54 L 990.48 433.27 L 990.73 432.70 L 993.52 420.76 L 993.51 420.30 L 993.27 419.91 L 992.87 419.68 L 992.40 419.67 L 986.91 421.31 L 981.57 423.35 L 976.39 425.80 L 975.81 426.32 L 975.57 427.06 L 975.72 427.82 L 976.22 428.41 L 976.22 428.41 Z" fill="#00be8b" fill-rule="nonzero" group-id="1,2" id="形状" node-id="39" stroke="none" target-height="59.896606" target-width="39.3244" target-x="969.37506" target-y="405.76227"></path><path d="M 320.88 407.51 L 423.03 407.69 L 423.39 407.84 L 423.55 408.21 L 423.54 408.91 L 423.39 409.28 L 423.02 409.43 L 320.87 409.25 L 320.51 409.10 L 320.35 408.73 L 320.36 408.03 L 320.51 407.66 L 320.88 407.51 Z" fill="#b9ccfd" fill-rule="nonzero" group-id="1,2,8" id="矩形" node-id="40" stroke="none" target-height="1.9194641" target-width="103.19122" target-x="320.35406" target-y="407.51172"></path><path d="M 442.83 410.18 L 580.25 410.18 L 582.98 410.31 L 585.51 410.78 L 587.09 411.35 L 588.40 412.13 L 589.48 413.14 L 590.24 414.36 L 590.67 415.94 L 590.72 418.00 L 585.13 476.21 L 581.29 514.50 L 580.72 517.43 L 579.54 520.67 L 577.66 524.31 L 428.98 524.23 L 427.46 521.47 L 426.50 518.89 L 426.05 516.45 L 426.06 514.09 L 432.64 448.39 L 434.22 433.26 L 435.60 418.10 L 436.01 415.76 L 436.74 413.94 L 437.75 412.51 L 439.07 411.42 L 440.73 410.64 L 442.83 410.18 Z M 507.61 455.42 L 504.90 455.49 L 502.54 455.91 L 500.47 456.64 L 498.66 457.68 L 496.52 459.51 L 494.88 461.64 L 493.68 464.12 L 492.98 466.79 L 492.78 469.53 L 493.10 472.37 L 493.95 475.10 L 495.35 477.65 L 497.36 480.07 L 499.01 481.34 L 500.69 482.22 L 502.37 483.03 L 503.93 484.06 L 504.81 484.91 L 505.61 486.14 L 506.33 487.84 L 506.75 488.65 L 507.08 488.66 L 507.57 487.89 L 508.81 484.87 L 509.32 484.22 L 510.10 483.98 L 512.96 483.57 L 515.48 482.67 L 517.71 481.27 L 519.69 479.48 L 521.35 477.44 L 522.71 475.12 L 523.75 472.63 L 524.43 470.17 L 524.77 467.72 L 524.75 465.25 L 524.35 463.12 L 523.60 461.26 L 522.44 459.69 L 520.90 458.59 L 518.88 457.93 L 518.52 457.78 L 518.28 457.46 L 518.22 457.06 L 518.36 456.68 L 519.82 454.25 L 520.84 451.71 L 521.44 449.01 L 521.63 446.14 L 521.42 445.54 L 520.82 445.35 L 517.56 445.67 L 514.90 446.50 L 512.75 447.78 L 510.99 449.52 L 509.61 451.79 L 508.60 454.70 L 508.26 455.25 L 507.61 455.42 Z" fill="#aab9ff" fill-rule="nonzero" group-id="1,2" id="形状" node-id="41" stroke="none" target-height="114.13025" target-width="164.66315" target-x="426.0523" target-y="410.17963"></path><path d="M 268.15 416.90 L 299.97 470.96 L 301.61 473.55 L 303.53 476.00 L 304.99 477.47 L 306.68 478.72 L 308.63 479.78 L 367.99 505.57 L 369.62 506.64 L 371.01 508.10 L 372.16 510.04 L 373.07 512.54 L 373.69 515.74 L 373.94 519.80 L 373.72 524.87 L 289.08 524.15 L 284.64 522.90 L 280.44 521.34 L 276.44 519.47 L 272.63 517.29 L 267.79 513.97 L 263.20 510.28 L 258.86 506.21 L 252.77 499.65 L 247.11 492.71 L 246.69 492.36 L 246.34 492.38 L 245.94 492.77 L 245.71 491.52 L 245.94 491.70 L 248.10 484.16 L 249.73 476.64 L 250.83 469.11 L 251.41 461.56 L 251.48 453.97 L 251.03 446.34 L 250.05 438.63 L 249.69 435.86 L 249.37 434.32 L 248.87 433.06 L 248.38 432.41 L 247.74 432.06 L 246.91 431.98 L 245.35 424.49 L 245.38 424.11 L 245.61 423.80 L 245.96 423.66 L 246.34 423.73 L 247.21 424.03 L 247.63 423.90 L 247.83 423.42 L 248.11 422.73 L 248.74 422.34 L 250.90 421.96 L 252.16 422.18 L 253.22 422.77 L 254.12 423.53 L 255.07 424.23 L 256.41 424.72 L 257.47 424.69 L 258.27 424.28 L 259.49 422.83 L 260.53 421.42 L 263.19 419.22 L 265.71 417.75 L 268.15 416.90 Z" fill="#ff6780" fill-rule="nonzero" group-id="1,2" id="路径" node-id="42" stroke="none" target-height="107.970276" target-width="128.5857" target-x="245.35199" target-y="416.89813"></path><path d="M 120.74 426.49 L 115.95 442.20 L 111.73 457.93 L 108.09 473.70 L 105.01 489.50 L 101.44 488.69 L 97.51 488.35 L 93.15 488.50 L 88.30 489.22 L 86.86 488.64 L 85.90 487.94 L 84.29 479.97 L 82.91 472.01 L 81.87 464.02 L 81.28 456.03 L 81.18 450.70 L 81.38 445.34 L 81.88 439.94 L 82.67 435.90 L 83.88 432.33 L 85.49 429.19 L 87.54 426.31 L 89.85 423.90 L 92.44 421.93 L 95.30 420.37 L 98.30 419.30 L 101.47 418.70 L 104.70 418.61 L 107.97 419.05 L 111.33 420.05 L 114.49 421.54 L 117.62 423.67 L 120.74 426.49 Z" fill="#00b381" fill-rule="nonzero" group-id="1,2" id="路径" node-id="43" stroke="none" target-height="70.89218" target-width="39.560387" target-x="81.1815" target-y="418.61032"></path><path d="M 362.74 419.25 L 421.96 419.25 L 422.42 419.34 L 422.79 419.59 L 423.04 419.96 L 423.13 420.42 L 423.13 422.97 L 423.04 423.43 L 422.79 423.80 L 422.42 424.05 L 421.96 424.14 L 362.74 424.14 L 362.28 424.05 L 361.91 423.80 L 361.66 423.43 L 361.57 422.97 L 361.57 420.42 L 361.66 419.96 L 361.91 419.59 L 362.28 419.34 L 362.74 419.25 Z" fill="#7f87ff" fill-rule="nonzero" group-id="1,2" id="矩形" node-id="44" stroke="none" target-height="4.8950195" target-width="61.565857" target-x="361.56824" target-y="419.24713"></path><path d="M 976.22 428.41 L 975.72 427.82 L 975.57 427.06 L 975.81 426.32 L 976.39 425.80 L 981.57 423.35 L 986.91 421.31 L 992.40 419.67 L 992.87 419.68 L 993.27 419.91 L 993.51 420.30 L 993.52 420.76 L 990.73 432.70 L 990.48 433.27 L 990.07 433.54 L 989.45 433.57 L 985.89 432.83 L 982.51 431.73 L 979.29 430.26 L 976.22 428.41 Z" fill="#fdfdfd" fill-rule="nonzero" group-id="1,2" id="路径" node-id="45" stroke="none" target-height="13.8966675" target-width="17.952576" target-x="975.5692" target-y="419.6742"></path><path d="M 934.72 424.31 L 937.08 431.68 L 939.06 439.06 L 940.67 446.46 L 942.58 457.66 L 944.02 468.95 L 946.21 491.74 L 945.47 498.52 L 945.23 511.54 L 944.78 518.30 L 943.87 524.87 L 942.90 529.15 L 941.56 533.08 L 939.86 536.71 L 938.27 539.23 L 936.38 541.48 L 934.17 543.48 L 931.61 545.23 L 928.90 546.58 L 925.72 547.62 L 921.97 548.32 L 917.58 548.64 L 913.24 548.46 L 906.66 547.69 L 897.20 546.11 L 896.63 545.81 L 896.39 545.22 L 895.24 533.67 L 895.39 532.38 L 897.04 527.00 L 898.62 521.21 L 900.22 515.34 L 902.03 509.33 L 904.18 503.39 L 906.82 497.55 L 907.67 495.34 L 908.29 492.61 L 909.13 486.81 L 909.62 483.93 L 910.29 481.40 L 915.08 466.47 L 918.45 454.55 L 919.04 451.27 L 919.26 446.89 L 919.39 446.05 L 919.75 445.30 L 920.66 443.59 L 921.10 441.70 L 921.05 439.58 L 921.14 438.66 L 921.69 437.91 L 923.69 435.82 L 925.18 433.46 L 926.21 430.78 L 926.47 430.26 L 926.80 430.15 L 927.32 430.42 L 928.16 431.11 L 928.47 431.24 L 928.80 431.17 L 929.05 430.93 L 929.13 430.60 L 929.29 428.17 L 929.93 426.48 L 930.98 425.32 L 932.52 424.58 L 934.72 424.31 Z" fill="#3d34ff" fill-rule="nonzero" group-id="1,2" id="路径" node-id="46" stroke="none" target-height="124.33084" target-width="50.970886" target-x="895.2431" target-y="424.30643"></path><path d="M 245.94 491.70 L 243.06 491.56 L 240.43 491.89 L 237.98 492.66 L 237.19 492.87 L 236.38 492.85 L 234.34 492.70 L 232.43 492.82 L 228.79 493.48 L 225.36 494.02 L 218.28 494.25 L 214.58 494.39 L 210.86 494.69 L 207.21 495.28 L 203.75 496.24 L 201.56 497.15 L 199.51 498.33 L 197.60 499.79 L 192.75 439.53 L 192.84 438.84 L 193.18 438.24 L 193.74 437.81 L 194.41 437.64 L 211.78 436.69 L 219.85 436.34 L 228.01 436.27 L 244.38 436.15 L 245.76 435.93 L 246.54 435.52 L 246.94 434.94 L 247.12 433.74 L 246.91 431.98 L 247.74 432.06 L 248.38 432.41 L 248.87 433.06 L 249.37 434.32 L 249.69 435.86 L 250.05 438.63 L 251.03 446.34 L 251.48 453.97 L 251.41 461.56 L 250.83 469.11 L 249.73 476.64 L 248.10 484.16 L 245.94 491.70 Z" fill="#f3436d" fill-rule="nonzero" group-id="1,2" id="路径" node-id="47" stroke="none" target-height="67.80786" target-width="58.723633" target-x="192.7549" target-y="431.9775"></path><path d="M 755.80 448.80 L 773.12 473.82 L 789.74 498.64 L 791.82 501.41 L 794.34 504.04 L 798.34 510.99 L 801.82 513.92 L 805.64 516.64 L 809.83 519.14 L 812.50 520.38 L 815.23 521.31 L 818.04 521.95 L 822.34 522.57 L 826.73 522.96 L 827.44 523.31 L 827.74 524.05 L 827.47 524.80 L 826.78 525.18 L 825.23 525.53 L 823.66 526.21 L 822.05 527.25 L 818.81 526.82 L 815.06 526.91 L 810.70 527.61 L 811.26 526.53 L 811.31 526.21 L 811.17 525.93 L 810.88 525.78 L 810.57 525.84 L 809.10 526.42 L 807.89 526.60 L 805.59 526.33 L 803.32 526.00 L 789.81 526.04 L 776.35 526.53 L 775.22 526.30 L 774.07 525.66 L 772.49 525.14 L 770.36 524.77 L 767.07 524.54 L 763.43 524.54 L 756.63 524.99 L 752.20 525.53 L 751.78 525.27 L 749.92 524.94 L 744.65 524.61 L 738.28 524.45 L 732.68 524.40 L 729.76 524.38 L 720.11 510.63 L 719.58 510.14 L 718.89 509.97 L 718.40 509.97 L 718.45 509.20 L 718.38 508.60 L 718.12 508.05 L 716.08 504.89 L 712.75 499.70 L 708.98 494.05 L 705.64 489.53 L 704.23 488.04 L 703.60 487.73 L 704.06 487.43 L 704.34 487.05 L 704.20 486.60 L 677.74 448.12 L 676.38 446.34 L 675.44 444.55 L 674.89 442.74 L 674.70 440.86 L 674.91 440.14 L 675.51 439.65 L 678.48 438.71 L 681.49 438.42 L 740.39 438.50 L 743.23 438.70 L 745.71 439.24 L 747.86 440.09 L 749.75 441.23 L 752.00 443.22 L 754.02 445.71 L 755.80 448.80 Z M 724.23 475.29 L 725.87 478.63 L 728.12 481.93 L 729.91 483.94 L 731.87 485.61 L 734.03 486.97 L 736.36 487.89 L 738.85 488.24 L 741.56 488.02 L 742.26 487.72 L 742.76 487.15 L 743.37 485.65 L 743.64 484.06 L 743.56 482.35 L 742.94 479.78 L 741.79 477.13 L 740.31 474.60 L 738.62 472.30 L 736.81 470.23 L 735.20 468.69 L 734.54 468.31 L 733.79 468.21 L 731.89 468.13 L 730.39 467.66 L 729.19 466.84 L 728.23 465.65 L 727.51 463.99 L 727.18 463.28 L 726.96 463.28 L 726.64 464.01 L 725.20 467.99 L 724.47 469.90 L 723.96 471.71 L 723.82 473.50 L 724.23 475.29 Z" fill="#aab9ff" fill-rule="nonzero" group-id="1,2" id="形状" node-id="48" stroke="none" target-height="89.19513" target-width="153.0346" target-x="674.703" target-y="438.41644"></path><path d="M 508.60 454.70 L 509.61 451.79 L 510.99 449.52 L 512.75 447.78 L 514.90 446.50 L 517.56 445.67 L 520.82 445.35 L 521.42 445.54 L 521.63 446.14 L 521.44 449.01 L 520.84 451.71 L 519.82 454.25 L 518.36 456.68 L 518.22 457.06 L 518.28 457.46 L 518.52 457.78 L 518.88 457.93 L 520.90 458.59 L 522.44 459.69 L 523.60 461.26 L 524.35 463.12 L 524.75 465.25 L 524.77 467.72 L 524.43 470.17 L 523.75 472.63 L 522.71 475.12 L 521.35 477.44 L 519.69 479.48 L 517.71 481.27 L 515.48 482.67 L 512.96 483.57 L 510.10 483.98 L 509.32 484.22 L 508.81 484.87 L 507.57 487.89 L 507.08 488.66 L 506.75 488.65 L 506.33 487.84 L 505.61 486.14 L 504.81 484.91 L 503.93 484.06 L 502.37 483.03 L 500.69 482.22 L 499.01 481.34 L 497.36 480.07 L 495.35 477.65 L 493.95 475.10 L 493.10 472.37 L 492.78 469.53 L 492.98 466.79 L 493.68 464.12 L 494.88 461.64 L 496.52 459.51 L 498.66 457.68 L 500.47 456.64 L 502.54 455.91 L 504.90 455.49 L 507.61 455.42 L 508.26 455.25 L 508.60 454.70 Z" fill="#fdfdfd" fill-rule="nonzero" group-id="1,2" id="路径" node-id="49" stroke="none" target-height="43.315186" target-width="31.986725" target-x="492.78207" target-y="445.3482"></path><path d="M 76.26 488.32 L 73.55 490.11 L 71.43 492.15 L 69.81 494.46 L 68.58 497.03 L 67.69 499.77 L 67.12 502.70 L 66.74 507.19 L 66.76 511.71 L 67.31 520.15 L 69.24 545.88 L 71.83 575.97 L 75.16 610.89 L 76.19 618.59 L 77.04 623.19 L 78.18 628.29 L 79.59 633.41 L 81.31 638.47 L 83.39 643.31 L 85.76 647.59 L 87.62 650.20 L 89.61 652.35 L 91.72 654.10 L 94.06 655.44 L 96.59 656.23 L 99.35 656.48 L 89.06 700.29 L 85.00 699.71 L 84.38 699.84 L 84.21 700.45 L 85.31 714.89 L 85.28 717.60 L 84.72 719.73 L 83.68 721.43 L 81.72 721.39 L 79.82 720.80 L 77.82 699.69 L 77.55 699.04 L 76.92 698.74 L 68.89 697.53 L 61.06 695.91 L 55.93 694.53 L 51.09 692.89 L 46.51 690.99 L 42.14 688.71 L 38.19 686.07 L 34.65 683.08 L 32.28 680.56 L 30.19 677.77 L 28.38 674.69 L 26.86 671.29 L 25.74 667.80 L 24.96 663.91 L 24.54 659.57 L 24.52 654.70 L 24.91 650.44 L 25.65 646.57 L 26.72 643.05 L 28.11 639.83 L 29.89 636.79 L 32.00 634.09 L 34.44 631.70 L 37.23 629.61 L 40.24 627.93 L 43.62 626.56 L 47.40 625.53 L 51.65 624.86 L 51.97 624.71 L 52.14 624.40 L 52.10 624.06 L 51.85 623.80 L 44.89 620.10 L 37.67 615.92 L 30.60 611.35 L 23.77 606.32 L 19.43 602.69 L 15.39 598.88 L 11.65 594.86 L 8.24 590.58 L 5.30 586.09 L 2.82 581.39 L 1.31 577.50 L 0.39 573.69 L 0.01 569.93 L 0.20 566.17 L 1.00 562.65 L 2.39 559.30 L 3.81 557.00 L 5.61 554.87 L 7.80 552.90 L 10.46 551.08 L 13.75 549.46 L 17.30 548.20 L 21.16 547.31 L 25.10 546.79 L 29.15 546.58 L 33.32 546.68 L 39.53 547.33 L 45.56 548.51 L 51.36 550.17 L 56.48 552.14 L 57.14 552.18 L 57.69 551.82 L 57.88 551.20 L 57.65 550.59 L 50.52 541.51 L 46.47 535.91 L 42.15 529.46 L 38.02 522.71 L 34.16 515.60 L 31.83 510.72 L 29.84 505.88 L 28.18 501.08 L 26.88 496.18 L 26.10 491.52 L 25.82 487.05 L 25.97 483.70 L 26.51 480.54 L 27.41 477.54 L 28.69 474.68 L 30.33 472.06 L 32.46 469.60 L 35.13 467.28 L 38.41 465.11 L 41.82 463.56 L 45.03 462.75 L 48.10 462.58 L 51.18 462.98 L 54.16 463.85 L 57.08 465.23 L 59.83 466.98 L 62.46 469.05 L 65.00 471.47 L 68.45 475.44 L 71.50 479.70 L 74.16 484.13 L 76.26 488.32 Z" fill="#00b381" fill-rule="nonzero" group-id="1,2" id="路径" node-id="50" stroke="none" target-height="258.84302" target-width="99.346405" target-x="0.008406013" target-y="462.58276"></path><path d="M 741.56 488.02 L 738.85 488.24 L 736.36 487.89 L 734.03 486.97 L 731.87 485.61 L 729.91 483.94 L 728.12 481.93 L 725.87 478.63 L 724.23 475.29 L 723.82 473.50 L 723.96 471.71 L 724.47 469.90 L 725.20 467.99 L 726.64 464.01 L 726.96 463.28 L 727.18 463.28 L 727.51 463.99 L 728.23 465.65 L 729.19 466.84 L 730.39 467.66 L 731.89 468.13 L 733.79 468.21 L 734.54 468.31 L 735.20 468.69 L 736.81 470.23 L 738.63 472.30 L 740.31 474.60 L 741.79 477.13 L 742.94 479.78 L 743.56 482.35 L 743.64 484.06 L 743.37 485.65 L 742.76 487.15 L 742.26 487.72 L 741.56 488.02 Z" fill="#5b6ff8" fill-rule="nonzero" group-id="1,2" id="路径" node-id="51" stroke="none" target-height="24.96408" target-width="19.814575" target-x="723.82306" target-y="463.28082"></path><path d="M 619.54 480.14 L 620.91 476.87 L 621.88 475.21 L 623.03 473.70 L 624.40 472.46 L 625.93 471.65 L 626.39 471.59 L 626.83 471.75 L 627.15 472.09 L 627.28 472.53 L 627.28 474.12 L 627.08 475.94 L 626.66 477.73 L 625.99 479.35 L 625.01 480.70 L 623.74 481.56 L 622.76 481.81 L 621.57 481.77 L 620.09 481.34 L 619.53 480.87 L 619.54 480.14 Z" fill="#00be8b" fill-rule="nonzero" group-id="1,2" id="路径" node-id="52" stroke="none" target-height="10.221985" target-width="7.7510376" target-x="619.53125" target-y="471.59192"></path><path d="M 611.41 482.99 L 610.52 482.92 L 609.44 482.09 L 608.52 480.79 L 607.70 478.92 L 607.24 476.94 L 607.20 475.34 L 607.57 474.03 L 608.23 473.45 L 609.11 473.52 L 610.20 474.35 L 611.12 475.65 L 611.94 477.51 L 612.40 479.50 L 612.44 481.09 L 612.07 482.40 L 611.41 482.99 Z" fill="#00be8b" fill-rule="nonzero" group-id="1,2,9" id="椭圆形" node-id="53" stroke="none" target-height="9.53894" target-width="5.241577" target-x="607.19855" target-y="473.44815"></path><path d="M 605.33 486.96 L 607.01 486.25 L 610.01 485.72 L 613.35 485.49 L 617.19 485.46 L 624.55 485.77 L 629.74 486.28 L 630.73 486.50 L 629.73 486.58 L 609.36 486.58 L 608.00 486.87 L 606.87 487.68 L 606.16 488.87 L 605.99 490.24 L 607.22 503.47 L 608.80 517.77 L 608.88 519.58 L 608.69 521.16 L 608.45 521.54 L 608.02 521.67 L 607.61 521.49 L 607.40 521.07 L 604.53 488.66 L 604.70 487.71 L 605.33 486.96 L 605.33 486.96 Z" fill="#e5e7ff" fill-rule="nonzero" group-id="1,2" id="路径" node-id="54" stroke="none" target-height="36.21472" target-width="26.20398" target-x="604.53" target-y="485.45544"></path><path d="M 703.60 487.73 L 704.23 488.04 L 705.64 489.53 L 708.98 494.05 L 712.75 499.70 L 716.08 504.89 L 718.12 508.05 L 718.38 508.60 L 718.45 509.20 L 718.40 509.97 L 715.64 523.90 L 690.36 524.36 L 686.20 488.62 L 686.34 487.95 L 686.99 487.73 L 703.60 487.73 Z" fill="#00b381" fill-rule="nonzero" group-id="1,2" id="路径" node-id="55" stroke="none" target-height="36.630676" target-width="32.244873" target-x="686.20166" target-y="487.72845"></path><path d="M 76.26 488.32 L 85.90 487.94 L 86.86 488.64 L 88.30 489.22 L 86.79 492.42 L 85.66 495.71 L 84.90 499.11 L 84.29 504.33 L 84.18 509.67 L 84.43 515.02 L 84.87 520.27 L 88.91 564.05 L 89.41 572.68 L 90.10 585.63 L 90.62 592.95 L 91.32 600.60 L 92.25 608.20 L 93.42 615.27 L 94.42 619.90 L 95.54 623.90 L 96.76 627.33 L 98.33 630.61 L 99.98 632.92 L 101.69 634.48 L 103.85 635.56 L 106.84 636.32 L 110.90 636.67 L 126.80 636.69 L 142.95 636.14 L 194.55 639.06 L 201.42 639.52 L 209.92 640.36 L 212.81 640.87 L 215.53 641.73 L 218.09 642.93 L 220.52 644.48 L 221.02 645.10 L 221.16 645.86 L 220.77 648.37 L 219.94 650.56 L 218.69 652.49 L 216.97 654.21 L 210.79 653.90 L 99.35 656.48 L 96.59 656.22 L 94.06 655.44 L 91.72 654.10 L 89.61 652.35 L 87.62 650.20 L 85.76 647.59 L 83.39 643.31 L 81.31 638.47 L 79.59 633.41 L 78.18 628.29 L 77.04 623.19 L 76.19 618.59 L 75.16 610.89 L 71.83 575.97 L 69.24 545.88 L 67.31 520.15 L 66.76 511.71 L 66.74 507.19 L 67.12 502.70 L 67.69 499.77 L 68.58 497.03 L 69.81 494.46 L 71.43 492.15 L 73.55 490.11 L 76.26 488.32 Z" fill="#5b6ff8" fill-rule="nonzero" group-id="1,2" id="路径" node-id="56" stroke="none" target-height="168.53406" target-width="154.41914" target-x="66.73686" target-y="487.94202"></path><path d="M 105.01 489.50 L 102.36 501.46 L 99.85 513.90 L 97.73 526.48 L 96.20 539.14 L 95.60 547.61 L 95.45 555.95 L 95.76 564.18 L 96.34 570.33 L 97.28 576.34 L 98.58 582.22 L 100.24 587.99 L 101.79 594.57 L 103.80 600.60 L 106.26 606.14 L 109.15 611.22 L 112.48 615.88 L 116.25 620.15 L 120.50 624.06 L 125.25 627.61 L 130.55 630.82 L 136.43 633.66 L 142.95 636.14 L 126.80 636.69 L 110.90 636.67 L 106.84 636.32 L 103.85 635.56 L 101.69 634.48 L 99.98 632.92 L 98.33 630.61 L 96.76 627.33 L 95.54 623.90 L 94.42 619.90 L 93.42 615.27 L 92.25 608.20 L 91.32 600.60 L 90.62 592.95 L 90.10 585.63 L 89.41 572.68 L 88.91 564.05 L 84.87 520.27 L 84.43 515.02 L 84.18 509.67 L 84.29 504.33 L 84.90 499.11 L 85.66 495.71 L 86.79 492.42 L 88.30 489.22 L 93.15 488.50 L 97.51 488.35 L 101.44 488.69 L 105.01 489.50 Z" fill="#5459ff" fill-rule="nonzero" group-id="1,2" id="路径" node-id="57" stroke="none" target-height="148.3453" target-width="58.76671" target-x="84.18358" target-y="488.34604"></path><path d="M 245.94 491.70 L 245.71 491.52 L 245.94 492.77 L 243.65 508.37 L 241.96 524.03 L 240.87 539.76 L 240.39 555.57 L 239.77 556.00 L 239.29 556.19 L 238.78 556.18 L 235.17 555.57 L 231.82 555.49 L 228.70 555.88 L 201.53 519.56 L 200.34 517.68 L 199.41 515.66 L 198.75 513.50 L 198.11 510.13 L 197.80 506.64 L 197.60 499.79 L 199.51 498.33 L 201.56 497.15 L 203.75 496.24 L 207.21 495.28 L 210.86 494.69 L 214.58 494.39 L 218.28 494.25 L 225.36 494.02 L 228.79 493.48 L 232.43 492.82 L 234.34 492.70 L 236.38 492.85 L 237.19 492.87 L 237.98 492.66 L 240.43 491.89 L 243.06 491.56 L 245.94 491.70 Z" fill="#ce315c" fill-rule="nonzero" group-id="1,2" id="路径" node-id="58" stroke="none" target-height="64.666016" target-width="48.342667" target-x="197.60066" target-y="491.52344"></path><path d="M 995.15 491.80 L 995.65 493.82 L 996.51 495.68 L 997.92 498.57 L 998.74 501.41 L 999.06 504.34 L 998.91 507.52 L 994.70 541.16 L 989.40 578.94 L 987.99 588.96 L 985.93 601.66 L 984.57 608.42 L 982.93 615.15 L 980.95 621.69 L 978.68 627.54 L 976.87 631.24 L 974.94 634.35 L 972.90 636.93 L 971.13 638.66 L 969.28 639.96 L 967.34 640.88 L 965.28 641.45 L 960.62 641.99 L 955.09 642.24 L 949.35 642.24 L 943.17 642.07 L 930.67 641.51 L 918.73 641.15 L 907.64 640.90 L 896.38 640.28 L 902.70 638.32 L 908.42 635.97 L 913.59 633.24 L 918.25 630.13 L 922.44 626.65 L 926.19 622.78 L 929.53 618.50 L 932.46 613.79 L 935.00 608.60 L 937.13 602.89 L 939.71 603.14 L 941.95 602.92 L 943.91 602.27 L 945.65 601.20 L 947.64 599.25 L 949.40 596.65 L 950.91 593.25 L 952.01 589.67 L 952.90 585.56 L 953.55 580.86 L 954.08 573.67 L 954.18 565.83 L 953.94 557.89 L 953.42 549.97 L 952.71 542.18 L 951.90 535.10 L 950.22 523.03 L 949.02 515.55 L 948.61 511.67 L 948.45 507.60 L 948.31 503.49 L 947.94 499.37 L 947.61 498.70 L 946.89 498.49 L 945.47 498.52 L 946.21 491.74 L 995.15 491.80 Z" fill="#5459ff" fill-rule="nonzero" group-id="1,2" id="路径" node-id="59" stroke="none" target-height="150.50644" target-width="102.68634" target-x="896.3765" target-y="491.73648"></path><path d="M 1004.33 596.08 L 1003.92 596.37 L 1003.60 596.75 L 1003.44 597.21 L 1002.26 604.48 L 1000.66 612.69 L 998.69 621.02 L 996.22 629.47 L 994.27 635.02 L 992.08 640.28 L 989.64 645.26 L 986.83 650.02 L 983.76 654.18 L 980.43 657.81 L 979.07 658.73 L 977.10 659.39 L 974.29 659.71 L 970.41 659.55 L 857.41 656.95 L 838.77 656.26 L 835.88 655.79 L 832.86 655.70 L 829.69 656.00 L 826.33 656.72 L 823.56 655.71 L 821.42 655.15 L 817.68 654.26 L 816.07 653.58 L 814.38 652.41 L 812.78 650.77 L 810.75 647.97 L 810.72 645.08 L 811.18 642.79 L 812.05 640.97 L 813.33 639.52 L 815.06 638.39 L 817.35 637.59 L 896.38 640.28 L 907.64 640.90 L 918.73 641.15 L 930.67 641.51 L 943.17 642.07 L 949.35 642.24 L 955.09 642.24 L 960.62 641.99 L 965.28 641.45 L 967.34 640.88 L 969.28 639.96 L 971.13 638.66 L 972.90 636.93 L 974.94 634.35 L 976.87 631.24 L 978.68 627.54 L 980.95 621.69 L 982.93 615.15 L 984.57 608.42 L 985.93 601.66 L 987.99 588.96 L 989.40 578.94 L 994.70 541.16 L 998.91 507.52 L 999.06 504.34 L 998.74 501.41 L 997.92 498.57 L 996.51 495.68 L 995.65 493.82 L 995.15 491.80 L 999.02 491.42 L 1002.35 491.42 L 1005.20 491.74 L 1007.65 492.34 L 1010.00 493.35 L 1011.94 494.71 L 1013.53 496.43 L 1014.80 498.57 L 1015.63 500.86 L 1016.17 503.67 L 1016.35 507.08 L 1016.09 511.22 L 1012.60 539.36 L 1008.54 567.43 L 1003.89 595.42 L 1003.95 595.71 L 1004.33 596.08 Z" fill="#5b6ff8" fill-rule="nonzero" group-id="1,2" id="路径" node-id="60" stroke="none" target-height="168.28711" target-width="205.62689" target-x="810.7188" target-y="491.4187"></path><path d="M 627.41 493.23 L 627.74 493.35 L 627.89 493.67 L 628.09 506.24 L 628.02 508.84 L 627.77 511.26 L 627.31 513.58 L 626.70 515.53 L 625.89 517.25 L 625.06 518.39 L 624.06 519.17 L 623.08 519.41 L 617.38 519.51 L 616.39 519.30 L 615.36 518.55 L 614.49 517.44 L 613.63 515.74 L 612.96 513.81 L 612.43 511.51 L 612.10 509.10 L 611.95 506.50 L 611.76 493.94 L 611.89 493.60 L 612.22 493.46 L 627.41 493.23 Z" fill="#ff9fa5" fill-rule="nonzero" group-id="1,2" id="路径" node-id="61" stroke="none" target-height="26.282135" target-width="16.327759" target-x="611.75757" target-y="493.2313"></path><path d="M 393.91 524.26 L 373.72 524.87 L 373.94 519.80 L 373.69 515.74 L 373.07 512.54 L 372.16 510.04 L 371.01 508.10 L 369.62 506.64 L 367.99 505.57 L 371.07 502.74 L 374.63 500.25 L 378.73 498.09 L 383.12 496.27 L 385.78 495.34 L 388.66 494.54 L 391.57 493.98 L 394.32 493.81 L 396.12 493.95 L 397.69 494.35 L 399.09 495.00 L 400.27 495.94 L 401.22 497.26 L 401.93 499.05 L 402.74 503.06 L 402.99 506.74 L 402.72 510.13 L 401.97 513.28 L 400.75 516.24 L 399.03 519.04 L 396.77 521.71 L 393.91 524.26 Z M 395.64 507.21 L 396.27 507.22 L 396.94 506.92 L 397.72 506.23 L 398.63 504.84 L 399.32 502.97 L 399.62 500.96 L 399.50 499.35 L 398.96 498.06 L 398.16 497.48 L 397.53 497.48 L 396.86 497.77 L 396.08 498.46 L 395.17 499.86 L 394.48 501.72 L 394.18 503.74 L 394.30 505.35 L 394.84 506.64 L 395.64 507.21 Z" fill="#ff9fa5" fill-rule="nonzero" group-id="1,2" id="形状" node-id="62" stroke="none" target-height="31.063385" target-width="34.994324" target-x="367.99094" target-y="493.80502"></path><path d="M 395.64 507.21 L 394.84 506.64 L 394.30 505.35 L 394.18 503.74 L 394.48 501.72 L 395.20 499.81 L 396.08 498.46 L 397.18 497.59 L 398.16 497.48 L 398.96 498.06 L 399.50 499.35 L 399.62 500.96 L 399.32 502.97 L 398.61 504.88 L 397.72 506.23 L 396.62 507.10 L 395.64 507.21 Z" fill="#2e226a" fill-rule="nonzero" group-id="1,2,10" id="椭圆形" node-id="63" stroke="none" target-height="9.732697" target-width="5.440918" target-x="394.1808" target-y="497.48154"></path><path d="M 844.93 532.93 L 822.05 527.25 L 823.66 526.21 L 825.23 525.53 L 826.78 525.18 L 827.47 524.80 L 827.74 524.05 L 827.44 523.31 L 826.73 522.96 L 822.34 522.57 L 818.04 521.95 L 815.23 521.31 L 812.50 520.38 L 809.83 519.14 L 805.64 516.64 L 801.82 513.92 L 798.34 510.99 L 805.46 509.55 L 812.38 508.58 L 819.14 508.08 L 825.74 508.03 L 831.22 508.44 L 837.09 509.31 L 843.01 510.49 L 849.04 511.87 L 860.88 514.65 L 861.52 515.05 L 861.77 515.77 L 861.77 536.12 L 861.68 536.50 L 861.43 536.80 L 861.07 536.97 L 860.68 536.96 L 844.93 532.93 Z" fill="#ff9fa5" fill-rule="nonzero" group-id="1,2" id="路径" node-id="64" stroke="none" target-height="28.93509" target-width="63.42206" target-x="798.3442" target-y="508.0314"></path><path d="M 718.40 509.97 L 718.89 509.97 L 719.58 510.14 L 720.11 510.63 L 729.76 524.38 L 715.64 523.90 L 718.40 509.97 Z" fill="#fdfdfd" fill-rule="nonzero" group-id="1,2" id="路径" node-id="65" stroke="none" target-height="14.405914" target-width="14.126648" target-x="715.63763" target-y="509.9697"></path><path d="M 373.72 524.87 L 393.91 524.26 L 428.98 524.23 L 577.66 524.31 L 690.36 524.36 L 715.64 523.90 L 729.76 524.38 L 732.68 524.40 L 738.28 524.45 L 744.65 524.61 L 749.92 524.94 L 751.78 525.27 L 752.20 525.53 L 753.82 529.25 L 754.53 532.04 L 754.56 534.13 L 754.03 536.11 L 753.05 537.66 L 751.58 538.86 L 749.81 539.74 L 747.72 540.41 L 745.27 540.86 L 741.51 541.19 L 737.65 541.28 L 667.13 541.18 L 635.51 541.29 L 414.94 541.29 L 405.00 540.79 L 395.08 540.85 L 385.14 541.48 L 356.58 540.80 L 328.06 540.62 L 299.58 540.93 L 295.76 541.05 L 293.85 541.01 L 292.00 540.77 L 290.24 540.24 L 288.57 539.32 L 286.67 537.64 L 285.49 535.90 L 284.90 534.08 L 284.87 532.09 L 285.45 529.83 L 286.78 527.22 L 289.08 524.15 L 373.72 524.87 Z" fill="#5b6ff8" fill-rule="nonzero" group-id="1,2" id="路径" node-id="66" stroke="none" target-height="17.576172" target-width="469.69086" target-x="284.87152" target-y="523.89923"></path><path d="M 775.22 526.30 L 775.24 527.21 L 775.70 528.01 L 776.74 528.76 L 778.78 529.54 L 781.81 530.17 L 785.11 530.56 L 788.88 530.79 L 796.41 530.86 L 802.87 530.63 L 806.72 530.35 L 809.06 529.08 L 810.70 527.61 L 815.06 526.91 L 818.81 526.82 L 822.05 527.25 L 844.93 532.93 L 843.72 539.94 L 841.93 546.92 L 839.56 553.89 L 836.57 560.88 L 832.95 567.91 L 823.10 568.96 L 756.24 576.25 L 749.90 577.06 L 743.61 578.18 L 737.36 579.60 L 731.23 581.41 L 725.41 583.66 L 719.89 586.33 L 715.94 588.69 L 712.28 591.37 L 708.88 594.39 L 705.74 597.74 L 703.00 601.37 L 700.60 605.45 L 698.55 610.01 L 696.85 615.13 L 696.14 618.60 L 695.54 623.91 L 695.14 631.62 L 695.04 642.37 L 695.37 708.40 L 695.40 774.45 L 695.24 776.99 L 694.78 779.46 L 693.73 779.32 L 693.45 778.97 L 690.28 754.42 L 687.52 729.84 L 678.56 645.32 L 669.23 559.97 L 667.13 541.18 L 737.65 541.28 L 741.51 541.19 L 745.27 540.86 L 747.72 540.41 L 749.81 539.74 L 751.58 538.86 L 753.05 537.66 L 754.03 536.11 L 754.56 534.13 L 754.53 532.04 L 753.82 529.25 L 752.20 525.53 L 756.63 524.99 L 763.43 524.54 L 767.07 524.54 L 770.36 524.77 L 772.49 525.14 L 774.07 525.66 L 775.22 526.30 Z" fill="#fdfdfd" fill-rule="nonzero" group-id="1,2" id="路径" node-id="67" stroke="none" target-height="254.92682" target-width="177.79852" target-x="667.13074" target-y="524.5351"></path><path d="M 810.70 527.61 L 809.06 529.08 L 806.72 530.35 L 805.81 529.83 L 805.59 529.48 L 805.65 528.88 L 805.64 528.59 L 805.37 528.50 L 800.57 528.50 L 793.35 528.39 L 785.63 528.09 L 779.32 527.50 L 777.06 526.98 L 776.35 526.53 L 789.81 526.04 L 803.32 526.00 L 805.59 526.33 L 807.89 526.60 L 809.10 526.42 L 810.57 525.84 L 810.88 525.78 L 811.17 525.93 L 811.31 526.21 L 811.26 526.53 L 810.70 527.61 Z" fill="#ff9fa5" fill-rule="nonzero" group-id="1,2" id="路径" node-id="68" stroke="none" target-height="4.572815" target-width="34.96161" target-x="776.34937" target-y="525.7819"></path><path d="M 775.22 526.30 L 776.35 526.53 L 777.06 526.98 L 779.32 527.50 L 785.63 528.09 L 793.35 528.39 L 800.57 528.50 L 805.37 528.50 L 805.64 528.59 L 805.65 528.88 L 805.59 529.48 L 805.81 529.83 L 806.72 530.35 L 802.87 530.63 L 796.41 530.86 L 788.88 530.79 L 785.11 530.56 L 781.81 530.17 L 778.78 529.54 L 776.74 528.76 L 775.70 528.01 L 775.24 527.21 L 775.22 526.30 Z" fill="#7348ff" fill-rule="nonzero" group-id="1,2" id="路径" node-id="69" stroke="none" target-height="4.564087" target-width="31.505676" target-x="775.21594" target-y="526.2975"></path><path d="M 414.94 541.29 L 417.24 560.05 L 416.56 560.09 L 416.17 559.86 L 415.79 559.54 L 415.30 559.43 L 383.46 559.18 L 385.14 541.48 L 395.08 540.85 L 405.00 540.79 L 414.94 541.29 Z" fill="#7579c8" fill-rule="nonzero" group-id="1,2" id="路径" node-id="70" stroke="none" target-height="19.2984" target-width="33.772522" target-x="383.46454" target-y="540.7891"></path><path d="M 667.13 541.18 L 669.23 559.97 L 660.89 559.29 L 651.27 558.79 L 646.37 558.78 L 641.75 559.00 L 637.32 559.54 L 633.67 560.40 L 635.51 541.29 L 667.13 541.18 Z" fill="#7579c8" fill-rule="nonzero" group-id="1,2" id="路径" node-id="71" stroke="none" target-height="19.218872" target-width="35.56299" target-x="633.6703" target-y="541.1797"></path><path d="M 167.62 552.28 L 169.86 553.34 L 170.04 553.53 L 170.05 553.80 L 169.89 554.01 L 169.63 554.07 L 167.11 553.89 L 165.05 554.24 L 163.35 555.05 L 161.92 556.34 L 160.72 558.20 L 160.47 558.96 L 160.43 559.77 L 160.94 566.07 L 161.27 567.35 L 163.54 573.20 L 165.58 579.02 L 166.77 581.86 L 168.21 584.63 L 170.08 588.07 L 171.86 591.71 L 175.36 599.01 L 177.27 602.50 L 179.35 605.67 L 180.68 607.89 L 181.67 610.18 L 182.60 612.48 L 183.67 614.64 L 185.97 618.60 L 186.10 618.58 L 186.35 618.15 L 186.64 618.19 L 189.32 621.61 L 191.40 625.03 L 192.93 628.45 L 193.95 631.92 L 194.49 635.44 L 194.55 639.06 L 142.95 636.14 L 136.43 633.66 L 130.55 630.82 L 125.25 627.61 L 120.50 624.06 L 116.25 620.15 L 112.48 615.88 L 109.15 611.22 L 106.26 606.14 L 103.80 600.60 L 101.79 594.57 L 100.24 587.99 L 105.95 581.73 L 111.85 576.14 L 117.96 571.17 L 124.27 566.80 L 130.81 563.01 L 137.60 559.77 L 144.65 557.08 L 151.98 554.93 L 159.63 553.33 L 167.62 552.28 Z" fill="#312f83" fill-rule="nonzero" group-id="1,2" id="路径" node-id="72" stroke="none" target-height="86.78027" target-width="94.30353" target-x="100.24184" target-y="552.28394"></path><path d="M 167.62 552.28 L 171.02 552.62 L 175.15 553.63 L 179.36 555.07 L 183.82 556.88 L 192.40 560.82 L 199.64 564.23 L 199.75 567.59 L 199.70 570.80 L 199.77 573.13 L 200.12 575.21 L 200.75 577.09 L 203.69 583.40 L 206.93 589.61 L 213.62 601.77 L 216.74 607.80 L 219.43 613.73 L 223.05 622.81 L 226.46 631.95 L 228.35 636.19 L 230.81 640.28 L 233.61 644.21 L 236.67 648.15 L 242.78 656.20 L 245.52 660.48 L 247.85 665.05 L 249.32 668.08 L 250.94 670.88 L 254.46 676.25 L 257.98 681.84 L 259.49 684.31 L 260.94 686.40 L 264.12 690.15 L 267.82 693.80 L 269.10 695.56 L 270.47 697.65 L 271.27 698.47 L 272.12 698.90 L 273.03 698.87 L 274.25 698.15 L 253.84 739.33 L 245.93 755.46 L 243.66 751.23 L 241.16 747.43 L 238.43 744.04 L 235.47 741.03 L 232.26 738.36 L 229.97 736.26 L 228.01 733.74 L 226.34 730.96 L 224.87 728.04 L 222.22 722.31 L 221.71 721.70 L 220.95 721.42 L 220.16 721.55 L 219.53 722.05 L 218.32 724.09 L 217.55 726.35 L 217.20 728.88 L 212.43 677.37 L 216.97 654.21 L 218.69 652.49 L 219.94 650.56 L 220.77 648.37 L 221.16 645.86 L 221.02 645.10 L 220.52 644.48 L 218.09 642.93 L 215.53 641.73 L 212.81 640.87 L 209.92 640.36 L 201.42 639.52 L 194.55 639.06 L 194.49 635.44 L 193.95 631.92 L 192.93 628.45 L 191.40 625.03 L 189.32 621.61 L 186.64 618.19 L 186.35 618.15 L 186.10 618.58 L 185.97 618.60 L 183.67 614.64 L 182.60 612.48 L 181.67 610.18 L 180.68 607.90 L 179.35 605.67 L 177.27 602.50 L 175.36 599.01 L 171.86 591.71 L 170.08 588.07 L 168.21 584.63 L 166.77 581.86 L 165.58 579.02 L 163.54 573.20 L 161.27 567.35 L 160.94 566.07 L 160.43 559.77 L 160.47 558.96 L 160.72 558.20 L 161.92 556.34 L 163.35 555.05 L 165.05 554.24 L 167.11 553.89 L 169.63 554.07 L 169.89 554.01 L 170.05 553.80 L 170.04 553.53 L 169.86 553.34 L 167.62 552.28 Z" fill="#37428a" fill-rule="nonzero" group-id="1,2" id="路径" node-id="73" stroke="none" target-height="203.17719" target-width="113.81799" target-x="160.42789" target-y="552.28394"></path><path d="M 240.39 555.57 L 240.44 556.00 L 240.82 556.37 L 281.73 566.92 L 322.57 577.74 L 328.53 579.57 L 333.98 581.78 L 338.97 584.38 L 342.49 586.68 L 345.65 589.27 L 348.46 592.15 L 350.96 595.34 L 353.02 598.76 L 354.69 602.60 L 355.96 606.89 L 356.80 611.71 L 357.22 617.68 L 357.10 623.29 L 356.49 628.57 L 355.42 633.78 L 353.89 639.08 L 351.89 644.49 L 348.30 652.62 L 343.66 661.85 L 342.53 661.57 L 340.45 660.64 L 336.98 658.68 L 326.46 652.00 L 317.33 645.56 L 309.47 639.33 L 302.76 633.31 L 300.73 631.70 L 298.90 630.82 L 297.20 630.54 L 295.55 630.78 L 293.88 631.57 L 293.29 632.24 L 293.17 633.12 L 293.79 639.65 L 293.82 646.06 L 293.26 652.36 L 292.12 658.58 L 290.39 664.75 L 288.04 670.90 L 274.25 698.15 L 273.03 698.87 L 272.12 698.90 L 271.27 698.47 L 270.47 697.65 L 269.10 695.56 L 267.82 693.80 L 264.12 690.15 L 260.94 686.40 L 259.49 684.31 L 257.98 681.84 L 254.46 676.25 L 250.94 670.88 L 249.32 668.08 L 247.85 665.05 L 245.52 660.48 L 242.78 656.20 L 236.67 648.15 L 233.61 644.21 L 230.81 640.28 L 228.35 636.19 L 226.46 631.95 L 223.05 622.81 L 219.43 613.73 L 216.74 607.80 L 213.62 601.77 L 206.93 589.61 L 203.69 583.40 L 200.75 577.09 L 200.12 575.21 L 199.77 573.13 L 199.70 570.80 L 199.75 567.59 L 199.64 564.23 L 245.61 583.84 L 246.15 583.88 L 246.59 583.60 L 246.78 583.10 L 246.63 582.59 L 228.70 555.88 L 231.82 555.49 L 235.17 555.57 L 238.78 556.18 L 239.29 556.19 L 239.77 556.00 L 240.39 555.57 Z" fill="#47559d" fill-rule="nonzero" group-id="1,2" id="路径" node-id="74" stroke="none" target-height="143.4101" target-width="157.57945" target-x="199.63753" target-y="555.487"></path><path d="M 417.24 560.05 L 440.64 798.32 L 440.47 799.04 L 439.77 799.30 L 430.38 799.58 L 429.92 799.51 L 429.53 799.29 L 429.25 798.94 L 429.11 798.50 L 401.22 578.20 L 400.96 577.94 L 400.70 578.20 L 368.55 805.71 L 368.27 806.22 L 367.71 806.43 L 357.61 806.50 L 357.03 806.31 L 356.89 805.73 L 383.46 559.18 L 415.30 559.43 L 415.79 559.54 L 416.17 559.86 L 416.56 560.09 L 417.24 560.05 Z" fill="#aab9ff" fill-rule="nonzero" group-id="1,2" id="路径" node-id="75" stroke="none" target-height="247.31506" target-width="83.75784" target-x="356.88672" target-y="559.183"></path><path d="M 669.23 559.97 L 678.56 645.32 L 687.52 729.84 L 690.28 754.42 L 693.45 778.97 L 693.73 779.32 L 694.78 779.46 L 693.04 780.48 L 680.83 784.72 L 651.82 572.13 L 651.72 571.88 L 651.48 571.78 L 651.23 571.88 L 651.13 572.13 L 620.64 805.63 L 620.49 806.12 L 620.18 806.50 L 619.75 806.75 L 619.25 806.84 L 609.84 806.68 L 609.17 806.43 L 609.00 805.73 L 633.67 560.40 L 637.32 559.54 L 641.75 559.00 L 646.37 558.78 L 651.27 558.79 L 660.89 559.29 L 669.23 559.97 Z" fill="#aab9ff" fill-rule="nonzero" group-id="1,2" id="路径" node-id="76" stroke="none" target-height="248.0653" target-width="85.77826" target-x="608.998" target-y="558.7774"></path><path d="M 937.13 602.89 L 935.00 608.60 L 932.46 613.79 L 929.53 618.50 L 926.19 622.78 L 922.44 626.65 L 918.25 630.13 L 913.59 633.24 L 908.42 635.97 L 902.70 638.32 L 896.38 640.28 L 817.35 637.59 L 816.52 636.90 L 816.04 635.99 L 815.91 634.76 L 816.22 633.08 L 816.27 632.34 L 816.00 631.62 L 815.60 630.55 L 815.62 629.30 L 815.91 628.86 L 816.46 628.65 L 816.85 628.50 L 817.04 628.12 L 824.86 576.76 L 824.79 576.25 L 824.45 575.87 L 824.22 575.41 L 824.21 574.32 L 824.25 571.60 L 823.92 570.20 L 823.10 568.96 L 832.95 567.91 L 840.89 567.01 L 848.60 566.67 L 856.11 566.86 L 863.44 567.56 L 870.62 568.78 L 877.65 570.51 L 884.57 572.75 L 890.93 575.28 L 897.10 578.09 L 903.06 581.16 L 911.80 586.17 L 920.33 591.55 L 937.13 602.89 Z" fill="#2e226a" fill-rule="nonzero" group-id="1,2" id="路径" node-id="77" stroke="none" target-height="73.61072" target-width="121.526794" target-x="815.6034" target-y="566.669"></path><path d="M 823.10 568.96 L 823.92 570.20 L 824.25 571.60 L 824.21 574.32 L 824.22 575.41 L 824.45 575.87 L 824.79 576.25 L 824.86 576.76 L 817.04 628.12 L 816.85 628.50 L 816.46 628.65 L 815.91 628.86 L 815.62 629.30 L 815.60 630.55 L 816.00 631.62 L 816.27 632.34 L 816.22 633.08 L 815.91 634.76 L 816.04 635.99 L 816.52 636.90 L 817.35 637.59 L 815.06 638.39 L 813.33 639.52 L 812.05 640.97 L 811.18 642.79 L 810.72 645.08 L 810.75 647.97 L 781.44 648.05 L 774.32 648.28 L 771.23 648.73 L 768.71 649.54 L 767.24 650.38 L 765.98 651.52 L 764.92 653.00 L 764.17 654.67 L 763.60 656.90 L 763.26 659.81 L 759.68 720.18 L 755.87 781.73 L 743.30 782.49 L 730.68 782.80 L 717.99 782.67 L 705.22 782.09 L 706.77 778.20 L 708.02 774.41 L 710.24 766.64 L 711.48 762.67 L 713.06 758.40 L 714.10 755.20 L 714.99 751.30 L 716.44 743.02 L 717.23 738.87 L 718.15 735.16 L 724.94 711.52 L 731.37 687.78 L 735.51 672.57 L 739.76 657.52 L 748.24 627.40 L 749.29 622.89 L 750.07 618.56 L 750.80 614.33 L 751.64 610.56 L 753.66 602.01 L 755.09 593.45 L 755.95 584.87 L 756.24 576.25 L 823.10 568.96 Z" fill="#37428a" fill-rule="nonzero" group-id="1,2" id="路径" node-id="78" stroke="none" target-height="213.84583" target-width="119.63287" target-x="705.2234" target-y="568.95667"></path><path d="M 756.24 576.25 L 755.95 584.87 L 755.09 593.45 L 753.66 602.01 L 751.64 610.56 L 750.80 614.33 L 750.07 618.56 L 749.29 622.89 L 748.24 627.40 L 739.76 657.52 L 735.51 672.57 L 731.37 687.78 L 724.94 711.52 L 718.15 735.16 L 717.23 738.87 L 716.44 743.02 L 714.99 751.30 L 714.10 755.20 L 713.06 758.40 L 711.48 762.67 L 710.24 766.64 L 708.02 774.41 L 706.77 778.20 L 705.22 782.09 L 701.08 782.19 L 697.04 781.65 L 693.04 780.48 L 694.78 779.46 L 695.24 776.99 L 695.40 774.45 L 695.37 708.40 L 695.04 642.37 L 695.14 631.62 L 695.54 623.91 L 696.14 618.60 L 696.85 615.13 L 698.55 610.01 L 700.60 605.45 L 703.00 601.37 L 705.74 597.74 L 708.88 594.39 L 712.28 591.37 L 715.94 588.69 L 719.89 586.33 L 725.41 583.66 L 731.23 581.41 L 737.36 579.60 L 743.61 578.18 L 749.90 577.06 L 756.24 576.25 Z" fill="#47559d" fill-rule="nonzero" group-id="1,2" id="路径" node-id="79" stroke="none" target-height="205.9367" target-width="63.208496" target-x="693.03503" target-y="576.2499"></path><path d="M 1004.33 596.08 L 1007.17 596.62 L 1009.44 597.54 L 1011.25 598.80 L 1013.63 601.27 L 1015.47 603.81 L 1016.82 606.43 L 1017.72 609.16 L 1018.34 612.99 L 1018.37 616.94 L 1017.79 621.06 L 1016.72 625.12 L 1015.25 629.18 L 1013.37 633.25 L 1010.07 639.09 L 1006.40 644.48 L 1002.46 649.46 L 998.81 653.49 L 998.48 653.99 L 998.58 654.26 L 999.16 654.44 L 1005.88 655.21 L 1010.04 655.95 L 1012.40 656.61 L 1015.82 658.21 L 1018.53 660.08 L 1020.63 662.19 L 1022.28 664.65 L 1023.37 667.23 L 1023.92 669.97 L 1023.95 672.78 L 1023.46 675.60 L 1022.41 678.48 L 1020.91 681.16 L 1018.88 683.74 L 1016.24 686.22 L 1013.86 687.93 L 1011.15 689.50 L 1008.09 690.94 L 1003.30 692.74 L 998.13 694.26 L 992.85 695.49 L 987.64 696.49 L 977.92 697.95 L 970.41 659.55 L 974.29 659.71 L 977.10 659.39 L 979.07 658.73 L 980.43 657.81 L 983.76 654.18 L 986.83 650.02 L 989.64 645.26 L 992.08 640.28 L 994.27 635.02 L 996.22 629.47 L 998.69 621.02 L 1000.66 612.69 L 1002.26 604.48 L 1003.44 597.21 L 1003.60 596.75 L 1003.92 596.37 L 1004.33 596.08 Z" fill="#00be8b" fill-rule="nonzero" group-id="1,2" id="路径" node-id="80" stroke="none" target-height="101.87604" target-width="53.537292" target-x="970.41" target-y="596.07654"></path><path d="M 343.66 661.85 L 326.37 698.59 L 321.69 694.20 L 316.72 690.34 L 311.45 687.01 L 308.49 684.93 L 303.89 680.75 L 297.03 673.53 L 295.48 672.21 L 293.54 671.31 L 291.10 670.85 L 288.04 670.90 L 290.39 664.75 L 292.12 658.58 L 293.26 652.36 L 293.82 646.06 L 293.79 639.65 L 293.17 633.12 L 293.29 632.24 L 293.88 631.57 L 295.55 630.78 L 297.20 630.54 L 298.90 630.82 L 300.73 631.70 L 302.76 633.31 L 309.47 639.33 L 317.33 645.56 L 326.46 652.00 L 336.98 658.68 L 340.45 660.64 L 342.53 661.57 L 343.66 661.85 Z" fill="#37428a" fill-rule="nonzero" group-id="1,2" id="路径" node-id="81" stroke="none" target-height="68.05249" target-width="55.619537" target-x="288.044" target-y="630.5407"></path><path d="M 210.79 653.90 L 212.43 677.37 L 217.20 728.88 L 224.13 794.98 L 225.16 805.17 L 225.04 805.73 L 224.51 805.96 L 217.35 806.40 L 216.83 806.33 L 216.40 806.08 L 216.09 805.70 L 215.95 805.20 L 215.06 795.21 L 206.22 727.04 L 198.67 658.78 L 198.47 658.15 L 198.08 657.66 L 197.54 657.35 L 196.89 657.25 L 166.06 658.41 L 164.98 658.67 L 164.31 659.29 L 163.96 660.35 L 147.06 799.85 L 146.75 800.42 L 146.14 800.67 L 139.14 800.76 L 138.65 800.66 L 138.25 800.37 L 138.01 799.94 L 137.96 799.45 L 149.27 689.43 L 152.94 662.32 L 152.88 661.61 L 152.53 660.98 L 151.94 660.56 L 151.23 660.43 L 110.38 662.00 L 109.61 662.29 L 109.18 662.98 L 99.77 700.29 L 94.36 721.05 L 73.40 795.18 L 73.36 796.53 L 73.04 797.75 L 72.43 798.89 L 71.76 799.45 L 70.90 799.60 L 65.09 799.01 L 64.55 798.75 L 64.47 798.15 L 64.69 796.18 L 64.55 795.71 L 67.20 787.67 L 69.29 780.00 L 76.70 750.91 L 84.29 721.87 L 84.22 721.56 L 83.68 721.43 L 84.72 719.73 L 85.28 717.60 L 85.31 714.89 L 89.06 700.29 L 99.35 656.48 L 210.79 653.90 Z" fill="#f3436d" fill-rule="nonzero" group-id="1,2" id="路径" node-id="82" stroke="none" target-height="152.50201" target-width="160.69873" target-x="64.4653" target-y="653.89716"></path><path d="M 210.79 653.90 L 216.97 654.21 L 212.43 677.37 Z" fill="#fdfdfd" fill-rule="nonzero" group-id="1,2" id="路径" node-id="83" stroke="none" target-height="23.473206" target-width="6.1763" target-x="210.791" target-y="653.89716"></path><path d="M 838.77 656.26 L 791.38 798.73 L 790.98 799.31 L 790.30 799.50 L 783.30 799.50 L 782.75 799.38 L 782.53 799.09 L 782.57 798.53 L 826.33 656.72 L 829.69 656.00 L 832.86 655.70 L 835.88 655.79 L 838.77 656.26 Z" fill="#f3436d" fill-rule="nonzero" group-id="1,2" id="路径" node-id="84" stroke="none" target-height="143.7998" target-width="56.241333" target-x="782.5281" target-y="655.7003"></path><path d="M 970.41 659.55 L 977.92 697.95 L 983.34 721.67 L 986.07 736.33 L 989.23 751.36 L 992.83 766.76 L 996.89 782.55 L 996.90 785.78 L 997.30 789.48 L 998.13 793.72 L 999.47 798.56 L 999.37 799.16 L 998.83 799.43 L 992.09 799.53 L 991.31 799.31 L 990.89 798.61 L 990.01 795.10 L 972.48 720.59 L 968.87 708.35 L 960.72 667.48 L 960.30 666.38 L 959.58 665.51 L 958.63 664.91 L 957.48 664.64 L 920.90 662.18 L 919.87 662.33 L 918.99 662.90 L 918.42 663.78 L 918.27 664.80 L 920.42 697.97 L 925.34 805.36 L 925.23 806.00 L 924.90 806.35 L 924.27 806.48 L 917.32 806.48 L 916.68 806.35 L 916.30 806.00 L 916.12 805.36 L 906.87 662.78 L 906.68 662.35 L 906.25 662.16 L 869.68 659.71 L 869.03 659.95 L 868.75 660.60 L 868.75 796.21 L 868.52 796.79 L 867.96 797.05 L 862.18 797.43 L 861.48 797.33 L 861.09 796.97 L 860.93 796.28 L 857.41 656.95 L 970.41 659.55 Z" fill="#f3436d" fill-rule="nonzero" group-id="1,2" id="路径" node-id="85" stroke="none" target-height="149.52881" target-width="142.05487" target-x="857.41327" target-y="656.95245"></path><path d="M 149.27 689.43 L 145.80 692.44 L 142.16 694.92 L 138.32 696.89 L 134.29 698.45 L 130.13 699.65 L 125.84 700.47 L 119.30 701.14 L 112.69 701.24 L 106.11 700.91 L 99.77 700.29 L 109.18 662.98 L 109.61 662.29 L 110.38 662.00 L 151.23 660.43 L 151.94 660.56 L 152.53 660.98 L 152.88 661.61 L 152.94 662.32 L 149.27 689.43 Z" fill="#00b381" fill-rule="nonzero" group-id="1,2" id="路径" node-id="86" stroke="none" target-height="40.803223" target-width="53.172012" target-x="99.76547" target-y="660.4348"></path><path d="M 968.87 708.35 L 968.67 720.64 L 962.38 721.10 L 962.66 702.34 L 962.56 701.82 L 962.28 701.59 L 961.75 701.60 L 956.38 702.78 L 951.05 703.78 L 945.72 704.45 L 940.50 704.65 L 937.04 704.46 L 933.63 703.95 L 930.24 703.09 L 926.98 701.87 L 923.71 700.18 L 920.42 697.97 L 918.27 664.80 L 918.42 663.78 L 918.99 662.90 L 919.87 662.33 L 920.90 662.18 L 957.48 664.64 L 958.62 664.91 L 959.58 665.51 L 960.30 666.38 L 960.72 667.48 L 968.87 708.35 Z" fill="#00be8b" fill-rule="nonzero" group-id="1,2" id="路径" node-id="87" stroke="none" target-height="58.921265" target-width="50.59308" target-x="918.27277" target-y="662.176"></path><path d="M 326.37 698.59 L 290.43 775.21 L 290.36 775.86 L 290.84 776.31 L 297.66 779.68 L 301.35 781.41 L 305.07 782.92 L 308.81 784.06 L 312.26 784.59 L 315.29 784.60 L 319.12 784.66 L 321.06 784.85 L 322.74 785.22 L 324.19 785.86 L 325.12 786.74 L 325.94 788.41 L 326.22 789.80 L 326.06 791.01 L 325.54 792.14 L 324.73 793.09 L 323.59 793.90 L 321.60 794.68 L 319.30 794.97 L 224.13 794.98 L 217.20 728.88 L 217.55 726.35 L 218.32 724.09 L 219.53 722.05 L 220.16 721.55 L 220.95 721.42 L 221.71 721.70 L 222.22 722.31 L 224.87 728.04 L 226.34 730.96 L 228.01 733.74 L 229.97 736.26 L 232.26 738.36 L 235.47 741.03 L 238.43 744.04 L 241.16 747.43 L 243.66 751.23 L 245.93 755.46 L 236.24 776.42 L 236.21 777.08 L 236.65 777.59 L 258.07 788.35 L 258.77 788.44 L 259.23 787.90 L 265.77 772.15 L 265.76 771.43 L 265.23 770.95 L 248.54 765.63 L 247.92 765.29 L 247.50 764.76 L 247.29 764.12 L 247.34 763.41 L 253.84 739.33 L 274.25 698.15 L 288.04 670.90 L 291.10 670.85 L 293.54 671.31 L 295.48 672.21 L 297.03 673.53 L 303.89 680.75 L 308.49 684.93 L 311.45 687.01 L 316.72 690.34 L 321.69 694.20 L 326.37 698.59 Z" fill="#2e226a" fill-rule="nonzero" group-id="1,2" id="路径" node-id="88" stroke="none" target-height="124.13159" target-width="109.16934" target-x="217.19727" target-y="670.85126"></path><path d="M 89.06 700.29 L 85.31 714.89 L 84.21 700.45 L 84.38 699.84 L 85.00 699.71 L 89.06 700.29 Z" fill="#fdfdfd" fill-rule="nonzero" group-id="1,2" id="路径" node-id="89" stroke="none" target-height="15.177856" target-width="4.845764" target-x="84.20975" target-y="699.7102"></path><path d="M 968.87 708.35 L 972.48 720.59 L 968.67 720.64 Z" fill="#fdfdfd" fill-rule="nonzero" group-id="1,2" id="路径" node-id="90" stroke="none" target-height="12.286865" target-width="3.810913" target-x="968.66876" target-y="708.35046"></path><path d="M 79.82 720.80 L 81.72 721.39 L 83.68 721.43 L 84.22 721.56 L 84.29 721.87 L 76.70 750.91 L 69.29 780.00 L 67.20 787.67 L 64.55 795.71 L 59.94 779.66 L 55.98 764.31 L 52.65 749.63 L 52.10 747.75 L 51.40 746.42 L 50.46 745.23 L 49.12 743.90 L 48.64 743.20 L 48.48 742.37 L 48.75 726.30 L 48.96 724.89 L 49.48 723.68 L 50.31 722.62 L 51.36 721.80 L 52.58 721.29 L 53.99 721.08 L 79.82 720.80 Z" fill="#fe9a29" fill-rule="nonzero" group-id="1,2" id="路径" node-id="91" stroke="none" target-height="74.90405" target-width="35.809727" target-x="48.48215" target-y="720.8016"></path><path d="M 968.67 720.64 L 972.48 720.59 L 990.01 795.10 L 947.64 795.05 L 946.94 794.81 L 946.53 794.19 L 940.68 771.74 L 935.24 749.25 L 934.68 747.53 L 934.03 746.43 L 931.89 744.27 L 931.43 743.63 L 931.25 742.86 L 931.13 734.02 L 931.53 725.17 L 931.93 723.70 L 932.78 722.54 L 933.99 721.75 L 935.47 721.44 L 962.38 721.10 L 968.67 720.64 Z" fill="#fe9a29" fill-rule="nonzero" group-id="1,2" id="路径" node-id="92" stroke="none" target-height="74.50983" target-width="58.876038" target-x="931.1305" target-y="720.588"></path><path d="M 94.36 721.05 L 122.94 721.06 L 125.09 721.27 L 126.70 721.84 L 127.91 722.72 L 128.79 723.93 L 129.35 725.54 L 129.56 727.68 L 129.56 742.50 L 129.38 743.39 L 128.86 744.14 L 126.80 746.26 L 126.08 747.40 L 125.54 748.96 L 120.11 771.64 L 114.37 794.28 L 113.88 795.01 L 113.05 795.29 L 73.40 795.18 L 94.36 721.05 Z" fill="#fe9a29" fill-rule="nonzero" group-id="1,2" id="路径" node-id="93" stroke="none" target-height="74.24701" target-width="56.1616" target-x="73.40122" target-y="721.048"></path><path d="M 996.89 782.55 L 992.83 766.76 L 989.23 751.36 L 986.07 736.33 L 983.34 721.67 L 1004.79 721.03 L 1006.92 721.22 L 1008.43 721.85 L 1009.48 722.87 L 1010.15 724.36 L 1010.41 726.49 L 1010.42 742.45 L 1010.23 743.28 L 1009.64 743.88 L 1008.96 744.53 L 1008.12 745.83 L 1007.06 748.09 L 1005.69 751.69 L 1004.17 756.35 L 1001.31 766.37 L 998.78 775.86 L 996.89 782.55 Z" fill="#fe9a29" fill-rule="nonzero" group-id="1,2" id="路径" node-id="94" stroke="none" target-height="61.5166" target-width="27.087036" target-x="983.33746" target-y="721.03156"></path><path d="M 206.22 727.04 L 215.06 795.21 L 209.66 794.85 L 208.97 794.66 L 208.62 794.25 L 208.54 793.54 L 210.51 773.33 L 210.37 772.68 L 209.81 772.35 L 198.49 769.74 L 197.94 769.49 L 197.69 769.10 L 197.68 768.50 L 206.22 727.04 Z" fill="#2e226a" fill-rule="nonzero" group-id="1,2" id="路径" node-id="95" stroke="none" target-height="68.16925" target-width="17.379044" target-x="197.6828" target-y="727.0436"></path><path d="M 253.84 739.33 L 247.34 763.41 L 247.29 764.12 L 247.50 764.76 L 247.92 765.29 L 248.54 765.63 L 265.23 770.95 L 265.76 771.43 L 265.77 772.15 L 259.23 787.90 L 258.77 788.44 L 258.07 788.35 L 236.65 777.59 L 236.21 777.08 L 236.24 776.42 L 245.93 755.46 L 253.84 739.33 Z" fill="#fdfdfd" fill-rule="nonzero" group-id="1,2" id="路径" node-id="96" stroke="none" target-height="49.110718" target-width="29.56488" target-x="236.20502" target-y="739.33044"></path><path d="M 693.04 780.48 L 697.04 781.65 L 701.08 782.19 L 705.22 782.09 L 717.99 782.67 L 730.68 782.80 L 743.30 782.49 L 755.87 781.73 L 753.43 793.00 L 753.11 793.80 L 752.55 794.43 L 751.83 794.84 L 750.97 794.98 L 696.21 795.00 L 686.04 795.05 L 673.50 794.49 L 672.02 794.17 L 670.78 793.41 L 669.85 792.29 L 669.32 790.88 L 669.23 789.47 L 669.47 788.34 L 670.01 787.42 L 671.26 786.30 L 672.98 785.47 L 674.93 784.96 L 677.00 784.69 L 679.07 784.63 L 680.83 784.72 L 693.04 780.48 Z" fill="#2e226a" fill-rule="nonzero" group-id="1,2" id="路径" node-id="97" stroke="none" target-height="14.57019" target-width="86.634705" target-x="669.231" target-y="780.4784"></path><path d="M 686.04 795.05 L 696.21 795.00 L 697.90 805.50 L 697.71 806.16 L 697.08 806.45 L 687.32 806.45 L 686.67 806.32 L 686.25 805.98 L 686.00 805.38 L 685.54 801.87 L 685.55 798.44 L 686.04 795.05 Z" fill="#aab9ff" fill-rule="nonzero" group-id="1,2" id="路径" node-id="98" stroke="none" target-height="11.449158" target-width="12.357788" target-x="685.5394" target-y="794.99927"></path></g></g></svg>