<svg width="120" height="121" viewBox="0 0 120 121" fill="none" xmlns="http://www.w3.org/2000/svg">
<path d="M99.4586 90.4491C99.893 92.3032 98.7524 94.1537 96.9091 94.5856L43.5391 107.09C41.6957 107.522 39.8518 106.37 39.4174 104.516L22.7861 33.5308C22.3517 31.6767 23.4923 29.8262 25.3356 29.3943L64.0464 20.3246L85.9156 35.4116L93.7963 67.467L99.4586 90.4491Z" fill="white"/>
<path fill-rule="evenodd" clip-rule="evenodd" d="M63.2725 19.4073C63.4783 19.3581 63.6952 19.3981 63.8699 19.5174L85.778 34.4798C85.9299 34.5835 86.0384 34.7395 86.0828 34.9179L99.7887 89.9699C100.336 92.2832 98.9083 94.4904 96.7173 95.0413L96.708 95.0437L43.3364 107.739L43.3352 107.739C41.0251 108.292 38.8324 106.847 38.2866 104.651L38.2848 104.644L27.3759 58.759L27.3753 58.7565L21.5155 33.7303C20.9685 31.4173 22.3962 29.2097 24.5868 28.6589L24.5953 28.6567L63.2725 19.4073ZM24.9526 30.1136L24.9486 30.1146C23.5356 30.4721 22.6216 31.8909 22.9752 33.3848L22.9756 33.3866L28.8352 58.4121L28.8358 58.4146L39.7423 104.289L39.7432 104.293C40.1004 105.722 41.5123 106.633 42.987 106.28L42.9881 106.28L96.3515 93.5866L96.3561 93.5855C97.7675 93.228 98.6809 91.8116 98.3299 90.3194L98.329 90.3154L84.6962 35.5574L63.2983 20.9434L24.9526 30.1136Z" fill="#DBDEEB"/>
<path d="M91.6671 96.4825C91.6671 98.3868 90.1345 99.9284 88.2412 99.9284H33.426C31.5327 99.9284 30 98.3868 30 96.4825V23.5748C30 21.6705 31.5327 20.1289 33.426 20.1289H73.185L91.036 39.8067L91.3967 72.8147L91.6671 96.4825Z" fill="white"/>
<path d="M72.8281 20.1289V35.7261C72.8281 37.9024 74.7214 39.7161 76.8852 39.7161H90.6791" fill="#E8EAF1"/>
<path d="M72.8281 20.1289V35.7261C72.8281 37.9024 74.7214 39.7161 76.8852 39.7161H90.6791" fill="#E8EAF1"/>
<path fill-rule="evenodd" clip-rule="evenodd" d="M72.8295 19.3789H73.185C73.3966 19.3789 73.5984 19.4683 73.7405 19.625L91.5915 39.3028C91.7148 39.4387 91.784 39.6151 91.786 39.7985L92.4172 96.4825C92.4171 98.7969 90.5528 100.678 88.2412 100.678H33.426C31.1144 100.678 29.25 98.7969 29.25 96.4825V23.5748C29.25 21.2604 31.1144 19.3789 33.426 19.3789H72.8295C72.8295 19.3789 72.8294 19.3789 72.8295 19.3789ZM72.0796 20.8789H33.426C31.951 20.8789 30.75 22.0806 30.75 23.5748V96.4825C30.75 97.9767 31.951 99.1784 33.426 99.1784H88.2412C89.7148 99.1784 90.9148 97.979 90.9171 96.4868L90.9171 96.4825L90.2932 40.4661H76.8866C74.3264 40.4661 72.0796 38.3342 72.0796 35.7261V20.8789ZM73.5796 35.7261V22.0653L88.9823 38.9661H76.8866C75.1193 38.9661 73.5796 37.4707 73.5796 35.7261Z" fill="#DBDEEB"/>
<g opacity="0.6">
<path fill-rule="evenodd" clip-rule="evenodd" d="M57.8359 49.5312H61.8359C62.9405 49.5312 63.8359 50.4267 63.8359 51.5312V53.5312H55.8359V51.5312C55.8359 50.4267 56.7314 49.5312 57.8359 49.5312ZM51.8359 51.5312C51.8359 48.2175 54.5222 45.5312 57.8359 45.5312H61.8359C65.1496 45.5312 67.8359 48.2175 67.8359 51.5312V53.8727C70.1663 54.6964 71.8359 56.9189 71.8359 59.5313V66.5313C71.8359 69.845 69.1496 72.5313 65.8359 72.5313H53.8359C50.5222 72.5313 47.8359 69.845 47.8359 66.5313V59.5313C47.8359 56.9189 49.5056 54.6964 51.8359 53.8727V51.5312ZM53.8359 57.5313H65.8359C66.9405 57.5313 67.8359 58.4267 67.8359 59.5313V66.5313C67.8359 67.6359 66.9405 68.5313 65.8359 68.5313H53.8359C52.7314 68.5313 51.8359 67.6359 51.8359 66.5313V59.5313C51.8359 58.4267 52.7314 57.5313 53.8359 57.5313Z" fill="#E8EAF1"/>
</g>
</svg>
