<svg t="1695968303925" class="icon" viewBox="0 0 1055 1024" version="1.1" xmlns="http://www.w3.org/2000/svg" p-id="4234" width="128" height="128"><path d="M775.734379 383.988364c0 137.056695-72.515621 257.326505-181.64589 325.28081l137.429048 238.0883c19.703645 34.132299-5.181904 76.611497-44.899488 76.611497H83.686502c-38.47641 0-63.455047-40.027878-46.26478-74.098119l127.220387-251.834308C65.006825 628.530772 0.00031 513.784188 0.00031 383.988364 0.00031 171.90267 173.671654 0 387.867345 0 602.094065 0 775.734379 171.90267 775.734379 383.988364z m-217.081422 110.588649a12.815127 12.815127 0 0 0-9.24675-16.538651 14.801006 14.801006 0 0 0-17.407472 9.463956 152.105936 152.105936 0 0 1-52.6258 69.691949 154.588285 154.588285 0 0 1-190.613375-5.957638 151.795643 151.795643 0 0 1-48.064483-72.856944 14.769977 14.769977 0 0 0-16.786885-10.549983 12.846156 12.846156 0 0 0-10.23969 15.949093 179.039423 179.039423 0 0 0 57.342263 88.247507 182.049271 182.049271 0 0 0 111.147177 42.261992 182.266477 182.266477 0 0 0 113.629526-35.218326 179.349717 179.349717 0 0 0 62.865489-84.492955z" fill="#C1D0FF" p-id="4235"></path><path d="M1054.998644 577.921881c0 95.508379-49.336687 179.349717-123.496864 226.700524l93.429411 165.945032c13.404685 23.799521-3.537347 53.401533-30.532893 53.401534H584.407328c-26.157753 0-43.130814-27.926426-31.463774-51.63286l86.509864-175.533105A268.497076 268.497076 0 0 1 527.499477 577.921881C527.499477 430.097997 645.597232 310.293627 791.24906 310.293627s263.749583 119.80437 263.749584 267.628254z" fill="#0F62FE" p-id="4236"></path><path d="M775.734379 383.988364c0 104.910275-42.510227 199.984243-111.395412 269.334869-35.373474 35.55965-50.329626 90.450592-25.257902 133.922729l92.436472 160.111512c19.703645 34.132299-5.181904 76.611497-44.899488 76.611497H83.686502c-38.47641 0-63.455047-40.027878-46.26478-74.098119l90.791915-179.753098c20.882761-41.362141 7.136753-91.04015-24.544226-124.831126A380.575134 380.575134 0 0 1 0.00031 383.988364C0.00031 171.90267 173.671654 0 387.867345 0 602.094065 0 775.734379 171.90267 775.734379 383.988364z" fill="#E8E8E8" fill-opacity=".1" p-id="4237"></path><path d="M704.646109 962.872155a20.169086 20.169086 0 0 1-17.99703 30.067453H83.655472a20.169086 20.169086 0 0 1-18.555559-29.074513l90.791916-179.753098c28.329808-56.132117 8.346899-119.587164-29.633042-160.049453A349.514742 349.514742 0 0 1 31.029673 383.988364C31.029673 189.341171 190.520598 31.029363 387.867345 31.029363S744.705016 189.341171 744.705016 383.988364c0 96.346171-38.97288 183.693827-102.365867 247.428139-42.168904 42.417139-64.230781 112.295264-30.098482 171.313111l92.405442 160.142541z m26.871428-15.514681l-92.436472-160.111512c-25.071725-43.472137-10.115572-98.36308 25.257902-133.953759A380.823369 380.823369 0 0 0 775.734379 383.988364C775.734379 171.90267 602.094065 0 387.867345 0 173.671654 0 0.00031 171.90267 0.00031 383.988364c0 100.938517 39.345232 192.754401 103.638072 261.298264 31.712009 33.790976 45.458016 83.468986 24.575255 124.831126l-90.791915 179.753098C20.231455 983.941093 45.241121 1023.968971 83.655472 1023.968971h602.962577c39.717584 0 64.603133-42.479198 44.899488-76.611497z" fill="#FFFFFF" fill-opacity=".6" p-id="4238"></path><path d="M566.348239 418.896397c12.815127 0 23.36511 10.425866 21.875701 23.147905a201.659828 201.659828 0 0 1-342.967547 119.463046 201.690858 201.690858 0 0 1-57.745644-119.463046c-1.45838-12.722039 9.060574-23.147905 21.875701-23.147905s23.054817 10.456895 24.947608 23.116875a155.301961 155.301961 0 0 0 307.066574 0c1.892791-12.65998 12.101451-23.116875 24.947607-23.116875z" fill="#FFFFFF" p-id="4239"></path></svg>